<?xml version="1.0" encoding="utf-8"?>
<!-- Generator: Adobe Illustrator 27.5.0, SVG Export Plug-In . SVG Version: 6.00 Build 0)  -->
<svg version="1.1" xmlns="http://www.w3.org/2000/svg" xmlns:xlink="http://www.w3.org/1999/xlink" x="0px" y="0px"
	 viewBox="0 0 3710 3710" style="enable-background:new 0 0 3710 3710;" xml:space="preserve">
<g id="Illustration">
	<g>
		<path style="fill:#F4F7FA;" d="M1611.722,3239.428C881.375,3128.823,287.843,2438.295,395.675,1670.79
			c91.992-654.559,665.866-1163.948,1354.052-1212.051c49.831-3.492,100.237-4.573,151.111-3.096
			c383.914,11.089,725.02,164.648,977.302,397.02c251.095,231.256,414.229,540.57,443.933,865.077
			C3401.174,2581.124,2520.113,3377,1611.722,3239.428z"/>
		<g>
			<g>
				<g>
					<g>
						<path style="fill:#BFC8D6;" d="M551.643,1707.267c-0.087,0-0.172-0.002-0.258-0.007l-26.649-1.524
							c-2.452-0.141-4.327-2.243-4.188-4.696c0.143-2.454,2.303-4.315,4.696-4.188l26.649,1.524
							c2.452,0.141,4.327,2.243,4.188,4.696C555.944,1705.438,553.982,1707.267,551.643,1707.267z"/>
					</g>
					<g>
						<path style="fill:#BFC8D6;" d="M2878.894,1840.386c-0.087,0-0.174-0.002-0.26-0.008l-52.889-3.025
							c-2.455-0.14-4.331-2.242-4.188-4.695c0.139-2.454,2.394-4.322,4.692-4.187l52.898,3.025c2.45,0.141,4.327,2.243,4.184,4.696
							C2883.195,1838.557,2881.236,1840.386,2878.894,1840.386z M2773.108,1834.335c-0.087,0-0.174-0.002-0.256-0.007l-52.893-3.025
							c-2.455-0.141-4.331-2.243-4.188-4.696c0.139-2.454,2.359-4.327,4.692-4.188l52.893,3.026c2.455,0.14,4.331,2.242,4.188,4.695
							C2777.409,1832.507,2775.449,1834.335,2773.108,1834.335z M2667.326,1828.285c-0.087,0-0.174-0.002-0.256-0.007l-52.893-3.025
							c-2.455-0.141-4.332-2.243-4.188-4.696c0.139-2.454,2.376-4.317,4.692-4.188l52.893,3.025
							c2.455,0.141,4.331,2.243,4.188,4.696C2671.627,1826.456,2669.667,1828.285,2667.326,1828.285z M2561.539,1822.233
							c-0.087,0-0.174-0.002-0.256-0.007l-52.893-3.025c-2.455-0.141-4.331-2.243-4.188-4.696c0.139-2.454,2.402-4.337,4.692-4.187
							l52.893,3.025c2.455,0.14,4.332,2.242,4.188,4.695C2565.84,1820.405,2563.881,1822.233,2561.539,1822.233z M2455.757,1816.183
							c-0.087,0-0.174-0.002-0.256-0.007l-52.893-3.025c-2.455-0.141-4.331-2.243-4.188-4.696c0.139-2.455,2.363-4.328,4.692-4.188
							l52.893,3.026c2.455,0.141,4.331,2.243,4.188,4.696C2460.058,1814.355,2458.099,1816.183,2455.757,1816.183z
							 M2349.971,1810.132c-0.087,0-0.174-0.002-0.261-0.008l-52.889-3.025c-2.455-0.141-4.331-2.243-4.188-4.696
							c0.139-2.453,2.385-4.333,4.692-4.187l52.893,3.025c2.455,0.141,4.332,2.243,4.188,4.696
							C2354.272,1808.303,2352.313,1810.132,2349.971,1810.132z M2244.189,1804.081c-0.087,0-0.174-0.002-0.256-0.007l-52.893-3.025
							c-2.455-0.141-4.331-2.243-4.188-4.696c0.139-2.455,2.407-4.323,4.692-4.188l52.893,3.025
							c2.455,0.141,4.331,2.243,4.188,4.696C2248.49,1802.253,2246.531,1804.081,2244.189,1804.081z M2138.403,1798.03
							c-0.087,0-0.174-0.002-0.256-0.008l-52.889-3.025c-2.455-0.141-4.331-2.243-4.188-4.696c0.139-2.454,2.363-4.328,4.692-4.187
							l52.889,3.025c2.455,0.141,4.331,2.243,4.188,4.696C2142.704,1796.202,2140.744,1798.03,2138.403,1798.03z M2032.621,1791.979
							c-0.087,0-0.174-0.002-0.261-0.007l-52.889-3.026c-2.454-0.141-4.331-2.243-4.188-4.696c0.139-2.453,2.39-4.318,4.692-4.187
							l52.897,3.026c2.45,0.14,4.327,2.242,4.184,4.695C2036.922,1790.151,2034.962,1791.979,2032.621,1791.979z M1926.834,1785.928
							c-0.087,0-0.174-0.002-0.256-0.008l-52.889-3.025c-2.455-0.14-4.331-2.242-4.188-4.695c0.139-2.454,2.407-4.323,4.692-4.188
							l52.889,3.025c2.455,0.141,4.331,2.243,4.188,4.696C1931.135,1784.1,1929.176,1785.928,1926.834,1785.928z M1821.052,1779.877
							c-0.087,0-0.174-0.002-0.256-0.007l-52.898-3.025c-2.45-0.141-4.327-2.243-4.184-4.696c0.139-2.453,2.25-4.329,4.696-4.188
							l52.889,3.026c2.455,0.14,4.331,2.242,4.188,4.695C1825.353,1778.049,1823.394,1779.877,1821.052,1779.877z
							 M1715.266,1773.827c-0.087,0-0.174-0.002-0.256-0.007l-52.893-3.026c-2.452-0.14-4.327-2.242-4.188-4.695
							c0.141-2.455,2.272-4.317,4.696-4.188l52.889,3.026c2.455,0.141,4.331,2.243,4.188,4.696
							C1719.567,1771.998,1717.608,1773.827,1715.266,1773.827z M1609.484,1767.776c-0.087,0-0.172-0.002-0.259-0.007l-52.893-3.026
							c-2.452-0.141-4.327-2.243-4.188-4.696c0.141-2.454,2.268-4.332,4.696-4.187l52.893,3.025c2.452,0.14,4.327,2.242,4.188,4.695
							C1613.785,1765.947,1611.824,1767.776,1609.484,1767.776z M1503.7,1761.725c-0.087,0-0.172-0.002-0.258-0.007l-52.893-3.025
							c-2.452-0.141-4.327-2.243-4.188-4.696c0.141-2.455,2.263-4.317,4.696-4.188l52.893,3.025
							c2.452,0.141,4.327,2.243,4.188,4.696C1508.001,1759.896,1506.039,1761.725,1503.7,1761.725z M1397.916,1755.674
							c-0.085,0-0.172-0.002-0.258-0.008l-52.891-3.025c-2.453-0.141-4.327-2.243-4.188-4.696c0.141-2.454,2.257-4.331,4.696-4.187
							l52.891,3.025c2.452,0.141,4.327,2.243,4.188,4.696C1402.217,1753.846,1400.255,1755.674,1397.916,1755.674z
							 M1292.132,1749.623c-0.087,0-0.172-0.002-0.259-0.007l-52.891-3.025c-2.452-0.141-4.327-2.243-4.188-4.696
							c0.141-2.455,2.253-4.317,4.696-4.187l52.891,3.025c2.452,0.141,4.327,2.243,4.188,4.696
							C1296.433,1747.795,1294.471,1749.623,1292.132,1749.623z M1186.348,1743.572c-0.087,0-0.172-0.002-0.259-0.008l-52.891-3.025
							c-2.452-0.141-4.327-2.243-4.188-4.696c0.141-2.454,2.307-4.317,4.696-4.187l52.891,3.025
							c2.452,0.141,4.327,2.243,4.188,4.696C1190.649,1741.744,1188.687,1743.572,1186.348,1743.572z M1080.563,1737.522
							c-0.087,0-0.172-0.002-0.258-0.007l-52.891-3.026c-2.452-0.141-4.327-2.243-4.188-4.696c0.143-2.455,2.303-4.316,4.696-4.187
							l52.891,3.026c2.452,0.14,4.327,2.242,4.188,4.695C1084.864,1735.694,1082.903,1737.522,1080.563,1737.522z M974.779,1731.47
							c-0.087,0-0.172-0.002-0.258-0.008l-52.891-3.025c-2.452-0.14-4.327-2.242-4.188-4.695c0.143-2.454,2.298-4.316,4.696-4.188
							l52.891,3.025c2.452,0.141,4.327,2.243,4.188,4.696C979.08,1729.642,977.119,1731.47,974.779,1731.47z M868.995,1725.42
							c-0.087,0-0.172-0.002-0.259-0.007l-52.891-3.025c-2.452-0.141-4.327-2.243-4.188-4.696c0.143-2.454,2.294-4.316,4.696-4.188
							l52.891,3.026c2.452,0.14,4.327,2.242,4.188,4.695C873.296,1723.591,871.334,1725.42,868.995,1725.42z M763.211,1719.369
							c-0.087,0-0.172-0.002-0.258-0.007l-52.891-3.026c-2.452-0.14-4.327-2.242-4.188-4.695c0.143-2.455,2.289-4.316,4.696-4.188
							l52.891,3.026c2.452,0.141,4.327,2.243,4.188,4.696C767.512,1717.541,765.55,1719.369,763.211,1719.369z M657.427,1713.318
							c-0.087,0-0.172-0.002-0.259-0.007l-52.891-3.025c-2.452-0.141-4.327-2.243-4.188-4.696c0.143-2.454,2.283-4.331,4.696-4.187
							l52.891,3.025c2.452,0.14,4.327,2.242,4.188,4.695C661.728,1711.489,659.766,1713.318,657.427,1713.318z"/>
					</g>
					<g>
						<path style="fill:#BFC8D6;" d="M2958.431,1844.936c-0.087,0-0.174-0.002-0.256-0.007l-26.649-1.524
							c-2.455-0.141-4.331-2.243-4.188-4.696c0.139-2.453,2.376-4.332,4.692-4.188l26.648,1.524
							c2.455,0.141,4.332,2.243,4.188,4.696C2962.732,1843.108,2960.773,1844.936,2958.431,1844.936z"/>
					</g>
				</g>
				<g>
					<g>
						<path style="fill:#BFC8D6;" d="M1048.773,925.409c-0.243,0-0.489-0.02-0.739-0.062l-26.327-4.4
							c-2.422-0.405-4.058-2.698-3.654-5.121c0.406-2.423,2.689-4.06,5.122-3.655l26.327,4.4c2.422,0.405,4.058,2.698,3.654,5.121
							C1052.794,923.868,1050.908,925.409,1048.773,925.409z"/>
					</g>
					<g>
						<path style="fill:#BFC8D6;" d="M2661.283,1194.942c-0.243,0-0.491-0.02-0.739-0.061l-53.753-8.985
							c-2.424-0.405-4.058-2.698-3.654-5.121c0.404-2.423,2.689-4.059,5.122-3.654l53.753,8.985
							c2.424,0.405,4.058,2.698,3.654,5.121C2665.301,1193.401,2663.42,1194.942,2661.283,1194.942z M2553.78,1176.973
							c-0.243,0-0.491-0.02-0.739-0.061l-53.749-8.984c-2.424-0.405-4.057-2.698-3.654-5.121c0.408-2.423,2.694-4.058,5.122-3.654
							l53.749,8.984c2.424,0.405,4.058,2.698,3.654,5.122C2557.799,1175.432,2555.917,1176.973,2553.78,1176.973z
							 M2446.278,1159.004c-0.243,0-0.491-0.02-0.739-0.061l-53.749-8.984c-2.424-0.405-4.058-2.698-3.654-5.121
							c0.404-2.423,2.698-4.064,5.122-3.654l53.749,8.984c2.424,0.405,4.058,2.698,3.654,5.121
							C2450.296,1157.463,2448.415,1159.004,2446.278,1159.004z M2338.78,1141.035c-0.243,0-0.491-0.02-0.739-0.061l-53.749-8.985
							c-2.424-0.405-4.058-2.698-3.654-5.121c0.404-2.423,2.702-4.059,5.122-3.654l53.749,8.985
							c2.424,0.405,4.058,2.698,3.654,5.121C2342.798,1139.494,2340.917,1141.035,2338.78,1141.035z M2231.278,1123.066
							c-0.243,0-0.491-0.02-0.739-0.061l-53.749-8.984c-2.424-0.405-4.058-2.698-3.654-5.121c0.408-2.423,2.689-4.058,5.122-3.654
							l53.749,8.984c2.424,0.405,4.058,2.698,3.654,5.122C2235.296,1121.525,2233.415,1123.066,2231.278,1123.066z
							 M2123.779,1105.097c-0.243,0-0.491-0.02-0.738-0.061l-53.753-8.984c-2.424-0.405-4.058-2.698-3.654-5.121
							c0.408-2.423,2.698-4.059,5.122-3.654l53.753,8.984c2.424,0.405,4.058,2.698,3.654,5.121
							C2127.798,1103.556,2125.917,1105.097,2123.779,1105.097z M2016.277,1087.129c-0.243,0-0.491-0.02-0.739-0.061l-53.749-8.984
							c-2.424-0.405-4.058-2.698-3.654-5.121c0.404-2.423,2.702-4.058,5.122-3.655l53.749,8.984
							c2.424,0.405,4.058,2.698,3.654,5.121C2020.296,1085.588,2018.415,1087.129,2016.277,1087.129z M1908.779,1069.16
							c-0.243,0-0.491-0.02-0.739-0.061l-53.753-8.984c-2.424-0.405-4.058-2.698-3.654-5.121c0.408-2.422,2.689-4.064,5.122-3.655
							l53.753,8.984c2.424,0.405,4.058,2.698,3.654,5.122C1912.798,1067.619,1910.917,1069.16,1908.779,1069.16z M1801.277,1051.191
							c-0.243,0-0.491-0.02-0.739-0.061l-53.749-8.985c-2.424-0.405-4.058-2.698-3.654-5.121c0.408-2.423,2.693-4.064,5.122-3.654
							l53.749,8.985c2.424,0.405,4.058,2.698,3.654,5.121C1805.295,1049.65,1803.414,1051.191,1801.277,1051.191z
							 M1693.776,1033.222c-0.243,0-0.489-0.02-0.739-0.061l-53.751-8.984c-2.422-0.405-4.058-2.698-3.654-5.122
							c0.404-2.422,2.687-4.058,5.122-3.654l53.751,8.984c2.422,0.405,4.058,2.698,3.654,5.121
							C1697.797,1031.681,1695.912,1033.222,1693.776,1033.222z M1586.276,1015.254c-0.243,0-0.489-0.02-0.739-0.061l-53.751-8.985
							c-2.422-0.405-4.058-2.698-3.654-5.122c0.406-2.422,2.685-4.061,5.122-3.654l53.751,8.985
							c2.422,0.405,4.058,2.698,3.654,5.121C1590.297,1013.713,1588.412,1015.254,1586.276,1015.254z M1478.776,997.285
							c-0.243,0-0.489-0.02-0.739-0.061l-53.751-8.984c-2.422-0.405-4.058-2.698-3.654-5.121c0.404-2.423,2.683-4.059,5.122-3.654
							l53.751,8.984c2.422,0.405,4.058,2.698,3.654,5.121C1482.797,995.744,1480.911,997.285,1478.776,997.285z M1371.276,979.316
							c-0.243,0-0.489-0.02-0.739-0.062l-53.751-8.984c-2.422-0.405-4.058-2.698-3.654-5.121c0.404-2.425,2.7-4.058,5.122-3.654
							l53.751,8.984c2.422,0.405,4.058,2.698,3.654,5.121C1375.297,977.775,1373.411,979.316,1371.276,979.316z M1263.776,961.347
							c-0.243,0-0.489-0.02-0.739-0.062l-53.751-8.984c-2.422-0.405-4.058-2.698-3.654-5.121c0.404-2.423,2.678-4.06,5.122-3.654
							l53.751,8.984c2.422,0.405,4.058,2.698,3.654,5.121C1267.797,959.806,1265.911,961.347,1263.776,961.347z M1156.276,943.378
							c-0.243,0-0.489-0.02-0.739-0.061l-53.751-8.984c-2.422-0.405-4.058-2.698-3.654-5.121c0.404-2.423,2.676-4.061,5.122-3.654
							l53.751,8.984c2.422,0.405,4.058,2.698,3.654,5.121C1160.296,941.837,1158.411,943.378,1156.276,943.378z"/>
					</g>
					<g>
						<path style="fill:#BFC8D6;" d="M2736.271,1234.531c-0.282,0-0.565-0.027-0.852-0.083c-2.411-0.468-3.988-2.803-3.519-5.215
							l4.214-21.72l-21.822-3.648c-2.424-0.405-4.058-2.698-3.654-5.121s2.702-4.06,5.122-3.655l26.327,4.4
							c1.182,0.198,2.238,0.866,2.92,1.851c0.686,0.986,0.943,2.206,0.712,3.384l-5.087,26.203
							C2740.22,1233.054,2738.361,1234.53,2736.271,1234.531z"/>
					</g>
					<g>
						<path style="fill:#BFC8D6;" d="M2485.816,2525.229c-0.282,0-0.565-0.027-0.852-0.083c-2.411-0.468-3.988-2.803-3.519-5.215
							l10.435-53.779c0.469-2.413,2.802-3.985,5.213-3.52c2.411,0.468,3.988,2.803,3.519,5.214l-10.435,53.779
							C2489.765,2523.752,2487.906,2525.229,2485.816,2525.229z M2506.687,2417.67c-0.282,0-0.565-0.027-0.852-0.082
							c-2.411-0.468-3.988-2.803-3.519-5.214l10.435-53.779c0.469-2.413,2.806-3.986,5.213-3.52
							c2.411,0.468,3.988,2.803,3.519,5.214l-10.435,53.78C2510.636,2416.194,2508.777,2417.67,2506.687,2417.67z
							 M2527.557,2310.111c-0.282,0-0.565-0.027-0.852-0.082c-2.411-0.468-3.988-2.803-3.519-5.215l10.435-53.779
							c0.469-2.413,2.811-3.986,5.213-3.52c2.411,0.468,3.988,2.802,3.519,5.215l-10.435,53.779
							C2531.506,2308.635,2529.647,2310.111,2527.557,2310.111z M2548.432,2202.554c-0.282,0-0.565-0.027-0.851-0.083
							c-2.411-0.468-3.988-2.803-3.519-5.214l10.435-53.78c0.469-2.413,2.811-3.982,5.213-3.52c2.411,0.468,3.988,2.803,3.519,5.215
							l-10.435,53.779C2552.381,2201.077,2550.522,2202.554,2548.432,2202.554z M2569.303,2094.995
							c-0.282,0-0.565-0.027-0.851-0.082c-2.411-0.468-3.988-2.802-3.519-5.214l10.435-53.779c0.469-2.413,2.811-3.983,5.213-3.52
							c2.411,0.468,3.988,2.803,3.519,5.214l-10.435,53.78C2573.252,2093.519,2571.392,2094.995,2569.303,2094.995z
							 M2590.173,1987.437c-0.282,0-0.565-0.027-0.852-0.082c-2.411-0.468-3.988-2.803-3.519-5.215l10.435-53.779
							c0.469-2.413,2.815-3.983,5.213-3.52c2.411,0.468,3.988,2.803,3.519,5.215l-10.435,53.779
							C2594.122,1985.961,2592.263,1987.437,2590.173,1987.437z M2611.044,1879.879c-0.282,0-0.565-0.027-0.851-0.083
							c-2.411-0.468-3.988-2.803-3.519-5.215l10.435-53.779c0.469-2.413,2.819-3.983,5.213-3.52
							c2.411,0.468,3.988,2.803,3.519,5.215l-10.435,53.779C2614.993,1878.403,2613.134,1879.879,2611.044,1879.879z
							 M2631.914,1772.321c-0.282,0-0.565-0.027-0.851-0.082c-2.411-0.468-3.988-2.803-3.519-5.214l10.435-53.78
							c0.469-2.412,2.806-3.983,5.213-3.52c2.411,0.468,3.988,2.803,3.519,5.214l-10.435,53.78
							C2635.863,1770.845,2634.004,1772.321,2631.914,1772.321z M2652.785,1664.763c-0.282,0-0.565-0.027-0.852-0.082
							c-2.411-0.468-3.988-2.803-3.519-5.215l10.435-53.779c0.469-2.413,2.807-3.984,5.213-3.52
							c2.411,0.468,3.988,2.803,3.519,5.214l-10.435,53.78C2656.734,1663.287,2654.875,1664.763,2652.785,1664.763z
							 M2673.66,1557.205c-0.282,0-0.565-0.027-0.852-0.083c-2.411-0.468-3.988-2.803-3.519-5.215l10.435-53.779
							c0.469-2.413,2.806-3.984,5.213-3.52c2.411,0.468,3.988,2.803,3.519,5.215l-10.435,53.778
							C2677.609,1555.728,2675.75,1557.205,2673.66,1557.205z M2694.53,1449.646c-0.282,0-0.565-0.027-0.852-0.083
							c-2.411-0.468-3.988-2.803-3.519-5.214l10.435-53.779c0.469-2.413,2.811-3.985,5.213-3.52
							c2.411,0.468,3.988,2.803,3.519,5.214l-10.435,53.779C2698.479,1448.17,2696.62,1449.646,2694.53,1449.646z
							 M2715.401,1342.088c-0.282,0-0.565-0.027-0.852-0.083c-2.411-0.468-3.988-2.803-3.519-5.214l10.435-53.779
							c0.469-2.413,2.815-3.983,5.213-3.52c2.411,0.468,3.988,2.803,3.519,5.214l-10.435,53.779
							C2719.35,1340.612,2717.49,1342.088,2715.401,1342.088z"/>
					</g>
					<g>
						<path style="fill:#BFC8D6;" d="M2470.294,2605.21c-0.256,0-0.513-0.022-0.773-0.068l-26.292-4.604
							c-2.42-0.424-4.036-2.729-3.615-5.149c0.421-2.417,2.685-4.046,5.153-3.615l21.987,3.85l4.253-21.915
							c0.469-2.413,2.802-3.985,5.213-3.52c2.411,0.468,3.988,2.803,3.519,5.215l-5.083,26.203
							C2474.243,2603.73,2472.383,2605.21,2470.294,2605.21z"/>
					</g>
					<g>
						<path style="fill:#BFC8D6;" d="M2392.229,2591.54c-0.252,0-0.513-0.022-0.773-0.067l-51.772-9.066
							c-2.42-0.424-4.036-2.729-3.615-5.149c0.421-2.418,2.698-4.046,5.153-3.615l51.772,9.066c2.42,0.424,4.036,2.729,3.615,5.149
							C2396.23,2590.018,2394.349,2591.54,2392.229,2591.54z M2288.68,2573.407c-0.252,0-0.513-0.022-0.773-0.067l-51.772-9.067
							c-2.42-0.424-4.036-2.729-3.615-5.149c0.421-2.418,2.693-4.046,5.152-3.615l51.772,9.067c2.42,0.423,4.036,2.729,3.615,5.149
							C2292.681,2571.886,2290.8,2573.407,2288.68,2573.407z M2185.135,2555.274c-0.252,0-0.513-0.022-0.773-0.067l-51.777-9.066
							c-2.42-0.424-4.036-2.729-3.615-5.149c0.421-2.417,2.694-4.047,5.153-3.615l51.777,9.066c2.42,0.423,4.036,2.729,3.615,5.149
							C2189.137,2553.753,2187.256,2555.274,2185.135,2555.274z M2081.586,2537.142c-0.252,0-0.512-0.022-0.773-0.067l-51.772-9.067
							c-2.42-0.424-4.036-2.729-3.615-5.149c0.421-2.418,2.685-4.046,5.152-3.615l51.772,9.067c2.42,0.424,4.036,2.729,3.615,5.149
							C2085.588,2535.62,2083.707,2537.142,2081.586,2537.142z M1978.042,2519.009c-0.252,0-0.513-0.022-0.773-0.067l-51.777-9.066
							c-2.42-0.424-4.036-2.729-3.615-5.149c0.421-2.417,2.702-4.047,5.152-3.615l51.777,9.066c2.42,0.424,4.036,2.729,3.615,5.149
							C1982.043,2517.487,1980.162,2519.009,1978.042,2519.009z M1874.493,2500.876c-0.252,0-0.513-0.022-0.773-0.067l-51.772-9.067
							c-2.42-0.424-4.036-2.729-3.615-5.149c0.421-2.417,2.694-4.047,5.153-3.615l51.772,9.067c2.42,0.424,4.036,2.729,3.615,5.149
							C1878.494,2499.355,1876.613,2500.876,1874.493,2500.876z M1770.944,2482.743c-0.252,0-0.513-0.022-0.773-0.067l-51.772-9.066
							c-2.42-0.424-4.036-2.729-3.615-5.149c0.421-2.417,2.689-4.048,5.152-3.615l51.772,9.066c2.42,0.424,4.036,2.729,3.615,5.149
							C1774.945,2481.222,1773.064,2482.743,1770.944,2482.743z M1667.397,2464.611c-0.254,0-0.513-0.022-0.771-0.067l-51.772-9.067
							c-2.42-0.424-4.038-2.729-3.615-5.149c0.424-2.422,2.746-4.039,5.148-3.615l51.772,9.067c2.42,0.424,4.038,2.729,3.615,5.149
							C1671.396,2463.089,1669.52,2464.611,1667.397,2464.611z M1563.85,2446.478c-0.254,0-0.513-0.021-0.771-0.067l-51.772-9.066
							c-2.42-0.424-4.038-2.729-3.615-5.149c0.426-2.419,2.735-4.041,5.148-3.615l51.772,9.066c2.42,0.424,4.038,2.729,3.615,5.149
							C1567.849,2444.956,1565.973,2446.478,1563.85,2446.478z M1460.304,2428.345c-0.254,0-0.513-0.022-0.771-0.067l-51.775-9.067
							c-2.42-0.424-4.038-2.729-3.615-5.149c0.426-2.419,2.737-4.041,5.148-3.615l51.774,9.067c2.42,0.424,4.038,2.729,3.615,5.149
							C1464.303,2426.824,1462.426,2428.345,1460.304,2428.345z M1356.757,2410.212c-0.254,0-0.513-0.022-0.771-0.067l-51.775-9.066
							c-2.42-0.424-4.038-2.729-3.615-5.149c0.426-2.419,2.739-4.041,5.148-3.615l51.774,9.066c2.42,0.424,4.038,2.729,3.615,5.149
							C1360.756,2408.691,1358.877,2410.212,1356.757,2410.212z M1253.208,2392.08c-0.254,0-0.513-0.022-0.771-0.067l-51.772-9.067
							c-2.42-0.424-4.038-2.729-3.615-5.149c0.426-2.419,2.739-4.041,5.148-3.615l51.772,9.067c2.42,0.424,4.038,2.729,3.615,5.149
							C1257.207,2390.558,1255.328,2392.08,1253.208,2392.08z M1149.661,2373.947c-0.254,0-0.513-0.022-0.771-0.067l-51.772-9.066
							c-2.42-0.423-4.038-2.729-3.615-5.149c0.424-2.419,2.741-4.041,5.148-3.615l51.772,9.066c2.42,0.424,4.038,2.729,3.615,5.149
							C1153.66,2372.425,1151.783,2373.947,1149.661,2373.947z"/>
					</g>
					<g>
						<path style="fill:#BFC8D6;" d="M1046.114,2355.814c-0.254,0-0.513-0.022-0.771-0.067l-26.292-4.604
							c-1.445-0.252-2.672-1.201-3.28-2.534c-0.608-1.333-0.521-2.881,0.232-4.138l13.739-22.885
							c1.264-2.105,3.992-2.79,6.104-1.524c2.107,1.264,2.789,3.998,1.525,6.104l-10.405,17.33l19.91,3.487
							c2.42,0.424,4.038,2.729,3.615,5.149C1050.113,2354.292,1048.237,2355.814,1046.114,2355.814z"/>
					</g>
					<g>
						<path style="fill:#BFC8D6;" d="M1061.726,2281.397c-0.78,0-1.568-0.205-2.285-0.635c-2.107-1.264-2.789-3.997-1.525-6.104
							l28.173-46.928c1.26-2.107,3.995-2.79,6.104-1.524c2.107,1.264,2.789,3.997,1.525,6.104l-28.173,46.929
							C1064.711,2280.627,1063.238,2281.397,1061.726,2281.397z M1118.075,2187.54c-0.78,0-1.568-0.205-2.285-0.635
							c-2.107-1.264-2.789-3.997-1.525-6.103l28.173-46.929c1.262-2.107,3.993-2.79,6.104-1.525
							c2.107,1.265,2.789,3.998,1.525,6.104l-28.173,46.929C1121.06,2186.77,1119.587,2187.54,1118.075,2187.54z M1174.424,2093.683
							c-0.78,0-1.568-0.205-2.285-0.635c-2.107-1.265-2.789-3.998-1.525-6.104l28.173-46.929c1.262-2.106,3.997-2.79,6.104-1.524
							c2.107,1.264,2.789,3.997,1.525,6.103l-28.173,46.929C1177.409,2092.913,1175.936,2093.683,1174.424,2093.683z
							 M1230.771,1999.825c-0.78,0-1.568-0.205-2.285-0.635c-2.107-1.264-2.789-3.997-1.525-6.104l28.176-46.928
							c1.264-2.106,3.995-2.79,6.104-1.524c2.107,1.264,2.789,3.997,1.525,6.104l-28.176,46.928
							C1233.756,1999.055,1232.283,1999.825,1230.771,1999.825z M1287.12,1905.968c-0.78,0-1.568-0.205-2.285-0.635
							c-2.107-1.264-2.789-3.997-1.525-6.103l28.173-46.929c1.26-2.107,3.995-2.79,6.104-1.525c2.107,1.265,2.789,3.998,1.525,6.104
							l-28.173,46.929C1290.105,1905.198,1288.632,1905.968,1287.12,1905.968z M1343.469,1812.111c-0.78,0-1.568-0.205-2.285-0.635
							c-2.107-1.265-2.789-3.998-1.525-6.104l28.173-46.929c1.262-2.106,3.992-2.79,6.104-1.524
							c2.107,1.264,2.789,3.997,1.525,6.103l-28.173,46.929C1346.454,1811.341,1344.981,1812.111,1343.469,1812.111z
							 M1399.819,1718.254c-0.78,0-1.568-0.205-2.285-0.635c-2.107-1.264-2.789-3.997-1.525-6.104l28.174-46.928
							c1.262-2.107,3.997-2.791,6.104-1.524c2.107,1.264,2.789,3.997,1.525,6.104l-28.173,46.929
							C1402.803,1717.484,1401.33,1718.254,1399.819,1718.254z M1456.166,1624.396c-0.78,0-1.568-0.205-2.285-0.635
							c-2.107-1.265-2.789-3.997-1.525-6.104l28.176-46.928c1.266-2.106,4.001-2.788,6.104-1.524
							c2.107,1.265,2.789,3.997,1.525,6.104l-28.176,46.928C1459.15,1623.626,1457.677,1624.396,1456.166,1624.396z
							 M1512.515,1530.539c-0.78,0-1.568-0.205-2.285-0.635c-2.107-1.265-2.789-3.998-1.525-6.104l28.173-46.929
							c1.264-2.106,3.995-2.79,6.104-1.524c2.107,1.264,2.789,3.997,1.525,6.103l-28.173,46.929
							C1515.499,1529.769,1514.027,1530.539,1512.515,1530.539z M1568.864,1436.682c-0.78,0-1.568-0.205-2.285-0.635
							c-2.107-1.264-2.789-3.997-1.525-6.104l28.173-46.928c1.262-2.106,3.992-2.79,6.104-1.524
							c2.107,1.264,2.789,3.997,1.525,6.104l-28.173,46.929C1571.849,1435.912,1570.376,1436.682,1568.864,1436.682z
							 M1625.213,1342.825c-0.78,0-1.568-0.205-2.285-0.635c-2.107-1.264-2.789-3.997-1.525-6.103l28.174-46.929
							c1.262-2.107,3.997-2.789,6.104-1.525c2.107,1.265,2.789,3.998,1.525,6.104l-28.173,46.929
							C1628.198,1342.055,1626.725,1342.825,1625.213,1342.825z M1681.56,1248.967c-0.78,0-1.568-0.205-2.285-0.635
							c-2.107-1.265-2.789-3.997-1.525-6.104l28.176-46.928c1.262-2.104,3.992-2.791,6.104-1.524
							c2.107,1.265,2.789,3.997,1.525,6.104l-28.176,46.928C1684.545,1248.197,1683.072,1248.967,1681.56,1248.967z
							 M1737.909,1155.11c-0.778,0-1.568-0.205-2.285-0.635c-2.107-1.264-2.789-3.997-1.525-6.104l28.173-46.928
							c1.264-2.103,3.993-2.792,6.104-1.524c2.107,1.264,2.789,3.997,1.525,6.104l-28.173,46.928
							C1740.894,1154.34,1739.421,1155.11,1737.909,1155.11z M1794.256,1061.253c-0.778,0-1.568-0.205-2.285-0.635
							c-2.107-1.265-2.789-3.997-1.525-6.104l28.178-46.929c1.264-2.105,3.993-2.792,6.104-1.524
							c2.107,1.265,2.789,3.997,1.525,6.104l-28.178,46.929C1797.241,1060.483,1795.768,1061.253,1794.256,1061.253z
							 M1850.607,967.395c-0.778,0-1.568-0.205-2.285-0.635c-2.107-1.264-2.789-3.997-1.525-6.104l28.174-46.929
							c1.264-2.104,3.992-2.791,6.104-1.524c2.107,1.264,2.789,3.997,1.525,6.104l-28.173,46.929
							C1853.592,966.625,1852.119,967.395,1850.607,967.395z M1906.954,873.538c-0.778,0-1.568-0.205-2.285-0.635
							c-2.107-1.264-2.789-3.998-1.525-6.104l28.173-46.928c1.26-2.105,3.993-2.792,6.104-1.524
							c2.107,1.264,2.789,3.997,1.525,6.104l-28.174,46.928C1909.939,872.768,1908.466,873.538,1906.954,873.538z"/>
					</g>
					<g>
						<path style="fill:#BFC8D6;" d="M1963.301,779.681c-0.778,0-1.568-0.205-2.285-0.635c-2.107-1.265-2.789-3.998-1.525-6.104
							l13.741-22.885c1.26-2.104,3.993-2.792,6.104-1.524c2.107,1.265,2.789,3.998,1.525,6.104l-13.741,22.885
							C1966.286,778.911,1964.813,779.681,1963.301,779.681z"/>
					</g>
				</g>
				<g>
					<g>
						<path style="fill:#BFC8D6;" d="M545.763,1727.525c-1.395,0-2.767-0.654-3.634-1.878l-15.427-21.782
							c-1.028-1.45-1.093-3.372-0.167-4.889l13.902-22.785c1.282-2.099,4.019-2.759,6.115-1.48c2.096,1.28,2.759,4.017,1.479,6.115
							l-12.377,20.286l13.735,19.393c1.421,2.005,0.947,4.782-1.058,6.202C547.548,1727.259,546.651,1727.525,545.763,1727.525z"/>
					</g>
					<g>
						<path style="fill:#BFC8D6;" d="M571.696,1637.94c-0.791,0-1.59-0.21-2.313-0.652c-2.096-1.279-2.759-4.017-1.479-6.115
							l27.468-45.018c1.282-2.099,4.019-2.759,6.115-1.48c2.096,1.279,2.759,4.017,1.479,6.115l-27.467,45.018
							C574.659,1637.182,573.195,1637.94,571.696,1637.94z M626.631,1547.904c-0.791,0-1.59-0.21-2.313-0.652
							c-2.096-1.279-2.759-4.018-1.479-6.115l27.467-45.018c1.282-2.099,4.019-2.759,6.115-1.48c2.096,1.28,2.759,4.017,1.479,6.115
							l-27.468,45.018C629.594,1547.146,628.13,1547.904,626.631,1547.904z M681.567,1457.868c-0.791,0-1.59-0.21-2.313-0.652
							c-2.096-1.279-2.759-4.017-1.479-6.115l27.467-45.018c1.279-2.099,4.021-2.759,6.115-1.48
							c2.096,1.279,2.759,4.018,1.479,6.115l-27.468,45.018C684.529,1457.11,683.065,1457.868,681.567,1457.868z M736.502,1367.832
							c-0.791,0-1.59-0.21-2.313-0.652c-2.096-1.279-2.759-4.017-1.479-6.115l27.467-45.018c1.28-2.098,4.021-2.759,6.115-1.48
							c2.096,1.279,2.759,4.017,1.479,6.115l-27.467,45.018C739.464,1367.074,738,1367.832,736.502,1367.832z M791.437,1277.796
							c-0.791,0-1.59-0.21-2.313-0.652c-2.096-1.279-2.759-4.017-1.479-6.115l27.467-45.018c1.279-2.099,4.021-2.759,6.115-1.48
							c2.096,1.279,2.759,4.018,1.479,6.115l-27.467,45.018C794.399,1277.038,792.935,1277.796,791.437,1277.796z M846.372,1187.76
							c-0.791,0-1.59-0.21-2.313-0.652c-2.096-1.28-2.759-4.018-1.479-6.115l27.467-45.018c1.279-2.098,4.021-2.759,6.115-1.48
							c2.096,1.279,2.759,4.017,1.479,6.115l-27.467,45.018C849.334,1187.002,847.87,1187.76,846.372,1187.76z M901.307,1097.724
							c-0.791,0-1.59-0.21-2.313-0.652c-2.096-1.279-2.759-4.017-1.479-6.115l27.467-45.018c1.28-2.098,4.021-2.759,6.115-1.48
							c2.096,1.279,2.759,4.017,1.479,6.115l-27.468,45.018C904.269,1096.966,902.805,1097.724,901.307,1097.724z M956.242,1007.688
							c-0.791,0-1.59-0.21-2.313-0.652c-2.096-1.279-2.759-4.017-1.479-6.115l27.468-45.018c1.279-2.099,4.023-2.758,6.115-1.48
							c2.096,1.28,2.759,4.017,1.479,6.115l-27.467,45.018C959.205,1006.93,957.74,1007.688,956.242,1007.688z"/>
					</g>
					<g>
						<path style="fill:#BFC8D6;" d="M1011.179,917.653c-0.791,0-1.59-0.21-2.313-0.652c-2.096-1.28-2.759-4.017-1.479-6.115
							l13.902-22.785c0.669-1.099,1.783-1.853,3.052-2.069l26.314-4.475c2.426-0.413,4.718,1.218,5.131,3.64
							c0.413,2.422-1.219,4.72-3.641,5.132l-24.316,4.136l-12.849,21.057C1014.142,916.894,1012.678,917.653,1011.179,917.653z"/>
					</g>
					<g>
						<path style="fill:#BFC8D6;" d="M2918.667,1747.992c-1.877,0-3.619-1.193-4.231-3.072l-16.226-49.792
							c-0.76-2.336,0.517-4.847,2.854-5.608c2.337-0.762,4.848,0.516,5.609,2.852l16.226,49.792c0.76,2.336-0.517,4.847-2.854,5.608
							C2919.588,1747.921,2919.123,1747.992,2918.667,1747.992z M2886.21,1648.407c-1.877,0-3.619-1.193-4.231-3.071l-16.226-49.792
							c-0.76-2.336,0.517-4.847,2.854-5.608c2.333-0.764,4.848,0.516,5.609,2.852l16.226,49.792c0.76,2.336-0.517,4.847-2.854,5.608
							C2887.131,1648.337,2886.666,1648.407,2886.21,1648.407z M2853.753,1548.823c-1.876,0-3.619-1.193-4.231-3.071l-16.227-49.792
							c-0.76-2.336,0.517-4.847,2.854-5.608c2.328-0.765,4.844,0.516,5.608,2.852l16.227,49.792c0.76,2.336-0.517,4.847-2.854,5.608
							C2854.674,1548.752,2854.209,1548.823,2853.753,1548.823z M2821.296,1449.24c-1.877,0-3.619-1.193-4.232-3.071l-16.226-49.792
							c-0.76-2.336,0.517-4.847,2.854-5.608c2.333-0.764,4.844,0.516,5.609,2.851l16.226,49.792c0.76,2.336-0.517,4.847-2.854,5.608
							C2822.217,1449.169,2821.752,1449.24,2821.296,1449.24z M2788.839,1349.656c-1.877,0-3.619-1.193-4.231-3.072l-16.227-49.792
							c-0.76-2.336,0.517-4.847,2.854-5.608c2.329-0.764,4.848,0.516,5.609,2.851l16.227,49.792c0.76,2.336-0.517,4.847-2.854,5.608
							C2789.76,1349.585,2789.295,1349.656,2788.839,1349.656z M2756.382,1250.072c-1.877,0-3.619-1.193-4.231-3.072l-14.519-44.558
							l-1.907-1.176c-2.094-1.289-2.741-4.029-1.456-6.121c1.286-2.09,4.027-2.745,6.121-1.453l3.297,2.032
							c0.899,0.553,1.568,1.406,1.898,2.409l15.027,46.11c0.76,2.336-0.517,4.847-2.854,5.608
							C2757.303,1250.001,2756.838,1250.072,2756.382,1250.072z M2693.479,1174.44c-0.795,0-1.603-0.214-2.329-0.662l-44.578-27.488
							c-2.094-1.29-2.741-4.03-1.456-6.122c1.29-2.09,4.032-2.741,6.121-1.452l44.578,27.488c2.094,1.29,2.741,4.03,1.455,6.122
							C2696.429,1173.689,2694.973,1174.44,2693.479,1174.44z M2604.327,1119.463c-0.795,0-1.603-0.214-2.329-0.662l-44.578-27.489
							c-2.094-1.29-2.741-4.031-1.456-6.122c1.29-2.088,4.027-2.744,6.121-1.452l44.578,27.489c2.094,1.29,2.741,4.031,1.455,6.122
							C2607.277,1118.712,2605.822,1119.463,2604.327,1119.463z M2515.176,1064.487c-0.795,0-1.603-0.214-2.329-0.663
							l-44.578-27.488c-2.094-1.29-2.741-4.031-1.456-6.122c1.29-2.091,4.032-2.741,6.121-1.452l44.578,27.488
							c2.094,1.29,2.741,4.031,1.455,6.122C2518.125,1063.735,2516.666,1064.487,2515.176,1064.487z M2426.024,1009.51
							c-0.795,0-1.603-0.214-2.329-0.662l-44.578-27.488c-2.094-1.29-2.741-4.03-1.455-6.122c1.29-2.089,4.027-2.745,6.121-1.452
							l44.578,27.488c2.094,1.29,2.741,4.031,1.455,6.122C2428.974,1008.759,2427.519,1009.51,2426.024,1009.51z M2336.873,954.533
							c-0.795,0-1.603-0.214-2.329-0.662l-44.578-27.488c-2.094-1.289-2.741-4.031-1.455-6.122c1.29-2.089,4.031-2.745,6.121-1.452
							l44.578,27.489c2.094,1.289,2.741,4.03,1.455,6.122C2339.823,953.783,2338.363,954.533,2336.873,954.533z M2247.721,899.557
							c-0.795,0-1.603-0.214-2.329-0.663l-44.578-27.488c-2.094-1.29-2.741-4.03-1.455-6.122c1.29-2.089,4.031-2.745,6.121-1.452
							l44.578,27.488c2.094,1.29,2.741,4.03,1.455,6.122C2250.671,898.806,2249.216,899.557,2247.721,899.557z M1103.024,881.611
							c-2.131,0-4.012-1.533-4.381-3.703c-0.413-2.422,1.219-4.72,3.641-5.132l51.629-8.781c2.405-0.407,4.718,1.216,5.131,3.64
							c0.413,2.422-1.219,4.72-3.641,5.131l-51.629,8.781C1103.521,881.591,1103.272,881.611,1103.024,881.611z M1206.282,864.051
							c-2.131,0-4.012-1.534-4.381-3.704c-0.413-2.422,1.219-4.72,3.641-5.132l51.629-8.781c2.429-0.414,4.72,1.218,5.131,3.64
							c0.413,2.422-1.219,4.72-3.641,5.132l-51.629,8.781C1206.779,864.03,1206.53,864.051,1206.282,864.051z M1309.537,846.49
							c-2.131,0-4.012-1.534-4.381-3.703c-0.413-2.422,1.219-4.72,3.641-5.132l51.629-8.781c2.424-0.412,4.718,1.218,5.131,3.64
							c0.413,2.422-1.219,4.72-3.641,5.132l-51.629,8.781C1310.035,846.469,1309.785,846.49,1309.537,846.49z M2158.569,844.58
							c-0.795,0-1.603-0.214-2.329-0.663l-44.578-27.488c-2.094-1.289-2.741-4.03-1.455-6.122c1.29-2.089,4.027-2.744,6.121-1.452
							l44.578,27.488c2.094,1.289,2.741,4.03,1.455,6.122C2161.519,843.829,2160.06,844.58,2158.569,844.58z M1412.795,828.929
							c-2.131,0-4.012-1.534-4.381-3.704c-0.413-2.422,1.219-4.72,3.641-5.132l51.629-8.781c2.411-0.412,4.718,1.218,5.131,3.64
							c0.413,2.422-1.219,4.72-3.641,5.132l-51.629,8.781C1413.293,828.908,1413.043,828.929,1412.795,828.929z M1516.053,811.368
							c-2.131,0-4.012-1.534-4.381-3.704c-0.413-2.422,1.219-4.72,3.641-5.132l51.629-8.781c2.398-0.409,4.718,1.216,5.131,3.64
							c0.413,2.422-1.219,4.72-3.641,5.132l-51.629,8.781C1516.551,811.347,1516.301,811.368,1516.053,811.368z M1619.307,793.807
							c-2.129,0-4.01-1.534-4.379-3.703c-0.413-2.422,1.219-4.72,3.641-5.132l51.629-8.781c2.416-0.413,4.718,1.218,5.131,3.64
							c0.413,2.422-1.219,4.72-3.641,5.132l-51.629,8.781C1619.806,793.786,1619.554,793.807,1619.307,793.807z M2069.418,789.603
							c-0.795,0-1.603-0.214-2.329-0.662l-44.578-27.488c-2.094-1.29-2.741-4.03-1.455-6.122c1.286-2.089,4.027-2.745,6.121-1.452
							l44.578,27.488c2.094,1.29,2.741,4.03,1.455,6.122C2072.368,788.853,2070.912,789.603,2069.418,789.603z M1722.569,776.246
							c-2.129,0-4.014-1.534-4.379-3.704c-0.413-2.422,1.216-4.72,3.636-5.132l51.625-8.781c2.433-0.41,4.727,1.218,5.131,3.64
							c0.413,2.422-1.216,4.72-3.636,5.132l-51.625,8.78C1723.069,776.225,1722.817,776.246,1722.569,776.246z M1825.823,758.685
							c-2.129,0-4.014-1.534-4.384-3.703c-0.408-2.422,1.221-4.72,3.641-5.131l51.629-8.781c2.424-0.411,4.722,1.218,5.135,3.64
							c0.408,2.422-1.221,4.72-3.641,5.131l-51.629,8.781C1826.322,758.664,1826.07,758.685,1825.823,758.685z M1929.08,741.124
							c-2.129,0-4.014-1.534-4.379-3.704c-0.413-2.422,1.216-4.72,3.636-5.131l48.379-8.228c1.073-0.181,2.163,0.033,3.08,0.599
							l2.807,1.73c2.094,1.289,2.741,4.03,1.455,6.122c-1.295,2.089-4.036,2.744-6.121,1.452l-1.382-0.85l-46.724,7.946
							C1929.58,741.104,1929.328,741.124,1929.08,741.124z"/>
					</g>
					<g>
						<path style="fill:#BFC8D6;" d="M2929.341,1845.996c-0.786,0-1.582-0.208-2.298-0.644c-2.103-1.272-2.776-4.008-1.503-6.109
							l12.768-21.091l-7.642-23.439c-0.76-2.336,0.517-4.847,2.854-5.609c2.329-0.761,4.848,0.516,5.609,2.851l8.272,25.378
							c0.4,1.231,0.243,2.575-0.426,3.682l-13.824,22.835C2932.313,1845.232,2930.844,1845.996,2929.341,1845.996z"/>
					</g>
					<g>
						<path style="fill:#BFC8D6;" d="M1626.004,2870.502c-1.892,0-3.645-1.217-4.242-3.117c-0.736-2.344,0.569-4.841,2.913-5.577
							l49.733-15.606c2.355-0.736,4.842,0.569,5.576,2.912c0.736,2.344-0.569,4.841-2.913,5.577l-49.733,15.606
							C1626.894,2870.436,1626.447,2870.502,1626.004,2870.502z M1725.467,2839.29c-1.894,0-3.649-1.217-4.245-3.118
							c-0.734-2.344,0.569-4.841,2.911-5.577l49.735-15.606c2.359-0.741,4.844,0.571,5.578,2.912
							c0.734,2.344-0.569,4.841-2.911,5.577l-49.735,15.606C1726.357,2839.224,1725.906,2839.29,1725.467,2839.29z
							 M1824.932,2808.078c-1.894,0-3.649-1.217-4.245-3.118c-0.734-2.344,0.569-4.841,2.911-5.577l49.731-15.606
							c2.346-0.74,4.844,0.571,5.578,2.912c0.734,2.344-0.569,4.841-2.911,5.577l-49.73,15.606
							C1825.823,2808.011,1825.371,2808.078,1824.932,2808.078z M1924.393,2776.865c-1.894,0-3.649-1.217-4.244-3.118
							c-0.734-2.344,0.569-4.841,2.911-5.577l49.73-15.606c2.35-0.739,4.844,0.571,5.578,2.912c0.734,2.344-0.569,4.841-2.911,5.577
							l-49.73,15.606C1925.283,2776.799,1924.832,2776.865,1924.393,2776.865z M2023.854,2745.653c-1.894,0-3.649-1.217-4.245-3.118
							c-0.734-2.344,0.569-4.841,2.911-5.577l49.73-15.606c2.35-0.739,4.844,0.572,5.578,2.912c0.734,2.344-0.569,4.841-2.911,5.577
							l-49.731,15.606C2024.744,2745.586,2024.292,2745.653,2023.854,2745.653z M2123.315,2714.44c-1.894,0-3.649-1.217-4.245-3.118
							c-0.734-2.344,0.569-4.841,2.911-5.577l49.735-15.606c2.359-0.741,4.844,0.571,5.578,2.912
							c0.734,2.344-0.569,4.841-2.911,5.577l-49.735,15.606C2124.205,2714.374,2123.753,2714.44,2123.315,2714.44z
							 M2222.78,2683.229c-1.894,0-3.649-1.217-4.244-3.118c-0.734-2.344,0.569-4.841,2.911-5.577l49.73-15.606
							c2.346-0.741,4.844,0.572,5.578,2.913c0.734,2.344-0.569,4.841-2.911,5.576l-49.73,15.606
							C2223.67,2683.162,2223.219,2683.229,2222.78,2683.229z M2322.241,2652.016c-1.894,0-3.649-1.217-4.245-3.118
							c-0.734-2.344,0.569-4.841,2.911-5.576l49.73-15.606c2.35-0.741,4.844,0.571,5.578,2.912c0.734,2.344-0.569,4.841-2.911,5.576
							l-49.73,15.606C2323.131,2651.95,2322.679,2652.016,2322.241,2652.016z M2421.701,2620.804c-1.894,0-3.649-1.217-4.244-3.118
							c-0.734-2.344,0.569-4.841,2.911-5.576l46.111-14.47l0.226-0.377c1.277-2.102,4.014-2.771,6.113-1.498
							c2.103,1.274,2.772,4.01,1.499,6.11l-1.099,1.813c-0.561,0.925-1.442,1.615-2.472,1.938l-47.71,14.972
							C2422.592,2620.738,2422.14,2620.804,2421.701,2620.804z M2497.494,2559.429c-0.786,0-1.577-0.208-2.298-0.644
							c-2.103-1.272-2.776-4.008-1.503-6.109l26.992-44.59c1.277-2.104,4.01-2.772,6.108-1.502c2.103,1.272,2.776,4.008,1.503,6.109
							l-26.992,44.589C2500.466,2558.665,2498.997,2559.429,2497.494,2559.429z M2551.478,2470.25c-0.786,0-1.577-0.208-2.298-0.644
							c-2.103-1.272-2.776-4.007-1.503-6.109l26.988-44.589c1.273-2.104,4.01-2.772,6.108-1.502
							c2.103,1.272,2.776,4.007,1.503,6.109l-26.988,44.59C2554.454,2469.486,2552.985,2470.25,2551.478,2470.25z
							 M2605.457,2381.071c-0.786,0-1.577-0.208-2.298-0.644c-2.103-1.272-2.776-4.008-1.503-6.109l26.992-44.589
							c1.273-2.104,4.005-2.771,6.108-1.502c2.103,1.272,2.776,4.008,1.503,6.109l-26.992,44.589
							C2608.433,2380.307,2606.96,2381.071,2605.457,2381.071z M2659.44,2291.892c-0.786,0-1.577-0.207-2.298-0.644
							c-2.103-1.272-2.776-4.007-1.503-6.109l26.988-44.59c1.269-2.104,4.005-2.772,6.108-1.502
							c2.103,1.272,2.776,4.007,1.503,6.109l-26.988,44.59C2662.417,2291.128,2660.944,2291.892,2659.44,2291.892z
							 M2713.42,2202.713c-0.786,0-1.577-0.208-2.298-0.644c-2.103-1.272-2.776-4.008-1.503-6.109l26.992-44.59
							c1.277-2.104,4.01-2.772,6.108-1.502c2.103,1.272,2.776,4.008,1.503,6.109l-26.992,44.59
							C2716.391,2201.948,2714.923,2202.713,2713.42,2202.713z M2767.399,2113.533c-0.786,0-1.577-0.208-2.298-0.644
							c-2.103-1.272-2.776-4.008-1.503-6.109l26.992-44.589c1.277-2.104,4.01-2.772,6.108-1.502
							c2.103,1.272,2.776,4.008,1.503,6.109l-26.992,44.589C2770.371,2112.769,2768.902,2113.533,2767.399,2113.533z
							 M2821.383,2024.354c-0.787,0-1.577-0.208-2.298-0.644c-2.103-1.272-2.776-4.008-1.503-6.109l26.992-44.589
							c1.269-2.104,4.01-2.772,6.108-1.502c2.103,1.272,2.776,4.008,1.503,6.109l-26.992,44.589
							C2824.359,2023.59,2822.886,2024.354,2821.383,2024.354z M2875.362,1935.175c-0.786,0-1.577-0.207-2.298-0.644
							c-2.103-1.272-2.776-4.008-1.503-6.109l26.992-44.589c1.273-2.104,4.01-2.772,6.108-1.502
							c2.103,1.272,2.776,4.008,1.503,6.109l-26.992,44.589C2878.338,1934.411,2876.865,1935.175,2875.362,1935.175z"/>
					</g>
					<g>
						<path style="fill:#BFC8D6;" d="M1550.806,2894.1c-1.116,0-2.211-0.421-3.05-1.21l-19.432-18.299
							c-1.788-1.685-1.872-4.5-0.189-6.289c1.686-1.791,4.499-1.872,6.288-0.189l17.536,16.514l22.982-7.212
							c2.333-0.734,4.84,0.566,5.576,2.913c0.736,2.344-0.569,4.841-2.913,5.576l-25.467,7.992
							C1551.701,2894.033,1551.252,2894.1,1550.806,2894.1z"/>
					</g>
					<g>
						<path style="fill:#BFC8D6;" d="M1493.197,2839.85c-1.095,0-2.192-0.401-3.05-1.21l-38.177-35.951
							c-1.79-1.685-1.872-4.5-0.189-6.289c1.686-1.791,4.505-1.871,6.289-0.189l38.176,35.951c1.79,1.685,1.873,4.5,0.189,6.289
							C1495.561,2839.381,1494.379,2839.85,1493.197,2839.85z M1416.842,2767.947c-1.095,0-2.189-0.401-3.05-1.21l-38.177-35.951
							c-1.788-1.684-1.872-4.5-0.189-6.288c1.688-1.791,4.503-1.871,6.288-0.189l38.177,35.951c1.788,1.685,1.872,4.5,0.189,6.289
							C1419.206,2767.478,1418.024,2767.947,1416.842,2767.947z M1340.489,2696.045c-1.095,0-2.19-0.401-3.05-1.21l-38.179-35.951
							c-1.788-1.685-1.872-4.5-0.189-6.289c1.683-1.791,4.501-1.872,6.288-0.189l38.179,35.951c1.788,1.685,1.873,4.5,0.189,6.289
							C1342.853,2695.575,1341.671,2696.045,1340.489,2696.045z M1264.134,2624.142c-1.095,0-2.19-0.401-3.05-1.21l-38.176-35.951
							c-1.788-1.685-1.873-4.5-0.189-6.289c1.688-1.791,4.503-1.871,6.289-0.189l38.177,35.951c1.788,1.684,1.872,4.5,0.189,6.288
							C1266.498,2623.673,1265.316,2624.142,1264.134,2624.142z M1187.779,2552.239c-1.095,0-2.192-0.401-3.05-1.21l-38.177-35.951
							c-1.788-1.685-1.872-4.5-0.189-6.289c1.683-1.791,4.505-1.871,6.289-0.189l38.177,35.951c1.788,1.685,1.872,4.5,0.189,6.289
							C1190.142,2551.77,1188.961,2552.239,1187.779,2552.239z M1111.426,2480.337c-1.095,0-2.192-0.401-3.05-1.21l-38.177-35.951
							c-1.788-1.684-1.873-4.5-0.189-6.288c1.684-1.791,4.501-1.872,6.289-0.189l38.177,35.951c1.788,1.685,1.872,4.5,0.189,6.289
							C1113.789,2479.867,1112.608,2480.337,1111.426,2480.337z M1035.071,2408.434c-1.095,0-2.192-0.401-3.05-1.21l-21.214-19.977
							c-0.215-0.203-0.411-0.426-0.58-0.667l-13.468-19.014c-1.421-2.005-0.947-4.781,1.058-6.202
							c2.007-1.421,4.781-0.945,6.202,1.059l13.211,18.652l20.89,19.673c1.79,1.684,1.872,4.5,0.189,6.288
							C1037.434,2407.965,1036.253,2408.434,1035.071,2408.434z M970.085,2326.648c-1.395,0-2.767-0.654-3.634-1.878l-30.309-42.795
							c-1.421-2.005-0.947-4.781,1.058-6.202c2.012-1.42,4.781-0.945,6.202,1.059l30.309,42.795
							c1.421,2.005,0.947,4.781-1.058,6.202C971.871,2326.382,970.974,2326.648,970.085,2326.648z M909.468,2241.059
							c-1.395,0-2.767-0.654-3.634-1.878l-30.309-42.794c-1.421-2.005-0.947-4.782,1.058-6.202c2.009-1.421,4.783-0.945,6.202,1.059
							l30.309,42.795c1.421,2.005,0.947,4.781-1.058,6.202C911.253,2240.793,910.356,2241.059,909.468,2241.059z M848.85,2155.47
							c-1.395,0-2.767-0.654-3.634-1.878l-30.309-42.794c-1.421-2.006-0.947-4.782,1.058-6.202c2.009-1.421,4.783-0.945,6.202,1.059
							l30.309,42.795c1.421,2.005,0.947,4.781-1.058,6.202C850.636,2155.204,849.739,2155.47,848.85,2155.47z M788.232,2069.881
							c-1.394,0-2.767-0.654-3.634-1.878l-30.309-42.795c-1.421-2.005-0.947-4.781,1.058-6.202c2.007-1.421,4.785-0.945,6.202,1.059
							l30.309,42.795c1.421,2.005,0.947,4.782-1.058,6.202C790.018,2069.615,789.121,2069.881,788.232,2069.881z M727.615,1984.292
							c-1.394,0-2.767-0.654-3.634-1.878l-30.309-42.794c-1.421-2.005-0.947-4.782,1.058-6.202c2.012-1.421,4.781-0.945,6.202,1.059
							l30.309,42.794c1.421,2.005,0.947,4.781-1.058,6.202C729.401,1984.026,728.503,1984.292,727.615,1984.292z M666.997,1898.703
							c-1.395,0-2.767-0.654-3.634-1.878l-30.309-42.795c-1.421-2.005-0.947-4.781,1.058-6.202c2.009-1.42,4.783-0.945,6.202,1.059
							l30.309,42.795c1.421,2.005,0.947,4.782-1.058,6.202C668.783,1898.437,667.886,1898.703,666.997,1898.703z M606.38,1813.115
							c-1.395,0-2.767-0.654-3.634-1.878l-30.309-42.795c-1.421-2.005-0.947-4.782,1.058-6.202c2.007-1.421,4.781-0.945,6.202,1.059
							l30.309,42.795c1.421,2.005,0.947,4.781-1.058,6.202C608.166,1812.849,607.268,1813.115,606.38,1813.115z"/>
					</g>
				</g>
				<g>
					<g>
						<path style="fill:#BFC8D6;" d="M1984.055,782.551c-1.955,0-3.749-1.302-4.288-3.281l-7.012-25.755
							c-0.647-2.371,0.752-4.816,3.124-5.461c2.372-0.645,4.814,0.753,5.461,3.124l7.012,25.755
							c0.647,2.371-0.752,4.816-3.124,5.461C1984.837,782.501,1984.441,782.551,1984.055,782.551z"/>
					</g>
					<g>
						<path style="fill:#BFC8D6;" d="M2453.607,2507.381c-1.955,0-3.749-1.302-4.288-3.281l-13.811-50.73
							c-0.647-2.371,0.751-4.816,3.124-5.461c2.368-0.645,4.818,0.753,5.461,3.124l13.811,50.73
							c0.647,2.371-0.752,4.816-3.124,5.461C2454.389,2507.33,2453.993,2507.381,2453.607,2507.381z M2425.985,2405.921
							c-1.955,0-3.749-1.302-4.288-3.281l-13.811-50.73c-0.647-2.37,0.752-4.816,3.124-5.461c2.363-0.645,4.813,0.753,5.461,3.124
							l13.811,50.73c0.647,2.371-0.752,4.816-3.124,5.461C2426.767,2405.87,2426.372,2405.921,2425.985,2405.921z M2398.363,2304.46
							c-1.955,0-3.749-1.302-4.288-3.281l-13.811-50.731c-0.647-2.371,0.751-4.816,3.124-5.461c2.372-0.644,4.814,0.753,5.461,3.124
							l13.811,50.731c0.647,2.371-0.751,4.816-3.124,5.461C2399.146,2304.409,2398.75,2304.46,2398.363,2304.46z M2370.742,2203
							c-1.955,0-3.749-1.302-4.288-3.282l-13.806-50.73c-0.647-2.37,0.751-4.815,3.124-5.461c2.363-0.642,4.818,0.753,5.461,3.125
							l13.806,50.73c0.647,2.37-0.751,4.815-3.124,5.46C2371.524,2202.948,2371.128,2203,2370.742,2203z M2343.124,2101.539
							c-1.955,0-3.749-1.302-4.288-3.281l-13.811-50.73c-0.647-2.37,0.752-4.816,3.124-5.461c2.372-0.649,4.814,0.753,5.461,3.124
							l13.811,50.73c0.647,2.371-0.752,4.816-3.124,5.462C2343.906,2101.488,2343.511,2101.539,2343.124,2101.539z
							 M2315.502,2000.078c-1.955,0-3.749-1.302-4.288-3.281l-13.811-50.73c-0.647-2.371,0.751-4.816,3.124-5.461
							c2.368-0.645,4.818,0.753,5.461,3.124l13.811,50.73c0.647,2.37-0.751,4.816-3.124,5.461
							C2316.284,2000.027,2315.889,2000.078,2315.502,2000.078z M2287.881,1898.618c-1.955,0-3.749-1.302-4.288-3.281
							l-13.811-50.731c-0.647-2.371,0.751-4.816,3.124-5.461c2.363-0.644,4.814,0.753,5.461,3.124l13.811,50.731
							c0.647,2.371-0.752,4.816-3.124,5.461C2288.663,1898.567,2288.267,1898.618,2287.881,1898.618z M2260.259,1797.157
							c-1.955,0-3.749-1.302-4.288-3.282l-13.807-50.73c-0.647-2.37,0.751-4.815,3.124-5.461c2.368-0.645,4.818,0.753,5.461,3.125
							l13.807,50.73c0.647,2.37-0.752,4.815-3.124,5.46C2261.041,1797.106,2260.646,1797.157,2260.259,1797.157z M2232.642,1695.696
							c-1.955,0-3.749-1.302-4.288-3.281l-13.811-50.73c-0.647-2.37,0.752-4.816,3.124-5.461c2.363-0.645,4.818,0.753,5.461,3.124
							l13.811,50.73c0.647,2.371-0.752,4.816-3.124,5.461C2233.424,1695.645,2233.028,1695.696,2232.642,1695.696z
							 M2205.02,1594.235c-1.955,0-3.75-1.302-4.288-3.281l-13.811-50.73c-0.647-2.371,0.752-4.816,3.124-5.461
							c2.372-0.645,4.814,0.753,5.461,3.124l13.811,50.73c0.647,2.371-0.751,4.816-3.124,5.461
							C2205.802,1594.184,2205.406,1594.235,2205.02,1594.235z M2177.398,1492.775c-1.955,0-3.749-1.302-4.288-3.281l-13.811-50.73
							c-0.647-2.37,0.751-4.816,3.124-5.461c2.368-0.645,4.818,0.753,5.461,3.124l13.811,50.73c0.647,2.371-0.751,4.816-3.124,5.461
							C2178.18,1492.724,2177.785,1492.775,2177.398,1492.775z M2149.781,1391.315c-1.955,0-3.749-1.302-4.288-3.281l-13.811-50.73
							c-0.647-2.371,0.752-4.816,3.124-5.461c2.372-0.644,4.814,0.753,5.461,3.124l13.811,50.73c0.647,2.37-0.752,4.816-3.124,5.461
							C2150.563,1391.264,2150.167,1391.315,2149.781,1391.315z M2122.159,1289.854c-1.955,0-3.749-1.302-4.288-3.281l-13.811-50.73
							c-0.647-2.371,0.751-4.816,3.124-5.462c2.368-0.645,4.818,0.753,5.461,3.124l13.811,50.73c0.647,2.37-0.751,4.816-3.124,5.461
							C2122.941,1289.803,2122.546,1289.854,2122.159,1289.854z M2094.537,1188.393c-1.955,0-3.749-1.302-4.288-3.281l-13.811-50.73
							c-0.647-2.371,0.751-4.816,3.124-5.461c2.363-0.645,4.818,0.753,5.461,3.124l13.811,50.73c0.647,2.37-0.751,4.816-3.124,5.461
							C2095.319,1188.342,2094.924,1188.393,2094.537,1188.393z M2066.916,1086.933c-1.955,0-3.749-1.302-4.288-3.281l-13.811-50.73
							c-0.647-2.37,0.752-4.816,3.124-5.461c2.372-0.644,4.814,0.753,5.461,3.124l13.811,50.73c0.647,2.371-0.752,4.816-3.124,5.461
							C2067.698,1086.882,2067.302,1086.933,2066.916,1086.933z M2039.298,985.472c-1.955,0-3.749-1.302-4.288-3.281l-13.811-50.73
							c-0.647-2.37,0.752-4.815,3.124-5.461c2.363-0.645,4.814,0.753,5.461,3.124l13.811,50.73c0.647,2.371-0.752,4.816-3.124,5.461
							C2040.08,985.422,2039.685,985.472,2039.298,985.472z M2011.676,884.012c-1.955,0-3.749-1.302-4.288-3.281L1993.578,830
							c-0.647-2.371,0.752-4.816,3.124-5.461c2.372-0.644,4.814,0.753,5.461,3.124l13.811,50.73
							c0.647,2.371-0.752,4.816-3.124,5.461C2012.458,883.961,2012.063,884.012,2011.676,884.012z"/>
					</g>
					<g>
						<path style="fill:#BFC8D6;" d="M2474.43,2583.865c-1.955,0-3.749-1.302-4.288-3.281l-7.012-25.755
							c-0.647-2.371,0.751-4.816,3.124-5.461c2.372-0.645,4.813,0.753,5.461,3.124l7.012,25.755c0.647,2.37-0.752,4.816-3.124,5.461
							C2475.212,2583.814,2474.816,2583.865,2474.43,2583.865z"/>
					</g>
				</g>
				<g>
					<g>
						<path style="fill:#BFC8D6;" d="M1028.417,945.854c-2.457,0-3.6-1.992-3.6-4.449v-26.692c0-2.457,1.144-4.449,3.6-4.449
							s3.6,1.992,3.6,4.449v26.692C1032.017,943.863,1030.873,945.854,1028.417,945.854z"/>
					</g>
					<g>
						<path style="fill:#BFC8D6;" d="M1028.417,2307.148c-2.457,0-3.6-1.992-3.6-4.449v-26.692c0-2.457,1.144-4.449,3.6-4.449
							s3.6,1.992,3.6,4.449v26.692C1032.017,2305.156,1030.873,2307.148,1028.417,2307.148z M1028.417,2227.072
							c-2.457,0-3.6-1.992-3.6-4.449v-53.384c0-2.457,1.144-4.448,3.6-4.448s3.6,1.992,3.6,4.448v53.384
							C1032.017,2225.08,1030.873,2227.072,1028.417,2227.072z M1028.417,2120.304c-2.457,0-3.6-1.992-3.6-4.449v-53.384
							c0-2.457,1.144-4.449,3.6-4.449s3.6,1.992,3.6,4.449v53.384C1032.017,2118.312,1030.873,2120.304,1028.417,2120.304z
							 M1028.417,2013.536c-2.457,0-3.6-1.992-3.6-4.449v-53.384c0-2.457,1.144-4.449,3.6-4.449s3.6,1.992,3.6,4.449v53.384
							C1032.017,2011.544,1030.873,2013.536,1028.417,2013.536z M1028.417,1906.768c-2.457,0-3.6-1.992-3.6-4.449v-53.384
							c0-2.457,1.144-4.449,3.6-4.449s3.6,1.992,3.6,4.449v53.384C1032.017,1904.776,1030.873,1906.768,1028.417,1906.768z
							 M1028.417,1800c-2.457,0-3.6-1.992-3.6-4.449v-53.384c0-2.457,1.144-4.449,3.6-4.449s3.6,1.992,3.6,4.449v53.384
							C1032.017,1798.008,1030.873,1800,1028.417,1800z M1028.417,1693.231c-2.457,0-3.6-1.992-3.6-4.449v-53.384
							c0-2.457,1.144-4.449,3.6-4.449s3.6,1.992,3.6,4.449v53.384C1032.017,1691.24,1030.873,1693.231,1028.417,1693.231z
							 M1028.417,1586.463c-2.457,0-3.6-1.992-3.6-4.449v-53.384c0-2.457,1.144-4.449,3.6-4.449s3.6,1.992,3.6,4.449v53.384
							C1032.017,1584.471,1030.873,1586.463,1028.417,1586.463z M1028.417,1479.695c-2.457,0-3.6-1.992-3.6-4.449v-53.384
							c0-2.457,1.144-4.449,3.6-4.449s3.6,1.992,3.6,4.449v53.384C1032.017,1477.703,1030.873,1479.695,1028.417,1479.695z
							 M1028.417,1372.927c-2.457,0-3.6-1.992-3.6-4.449v-53.384c0-2.457,1.144-4.449,3.6-4.449s3.6,1.992,3.6,4.449v53.384
							C1032.017,1370.935,1030.873,1372.927,1028.417,1372.927z M1028.417,1266.159c-2.457,0-3.6-1.992-3.6-4.449v-53.384
							c0-2.457,1.144-4.449,3.6-4.449s3.6,1.992,3.6,4.449v53.384C1032.017,1264.167,1030.873,1266.159,1028.417,1266.159z
							 M1028.417,1159.391c-2.457,0-3.6-1.992-3.6-4.449v-53.384c0-2.457,1.144-4.449,3.6-4.449s3.6,1.992,3.6,4.449v53.384
							C1032.017,1157.399,1030.873,1159.391,1028.417,1159.391z M1028.417,1052.623c-2.457,0-3.6-1.992-3.6-4.449V994.79
							c0-2.457,1.144-4.449,3.6-4.449s3.6,1.992,3.6,4.449v53.384C1032.017,1050.631,1030.873,1052.623,1028.417,1052.623z"/>
					</g>
					<g>
						<path style="fill:#BFC8D6;" d="M1028.417,2360.532c-2.457,0-3.6-1.992-3.6-4.449v-26.692c0-2.457,1.144-4.449,3.6-4.449
							s3.6,1.992,3.6,4.449v26.692C1032.017,2358.541,1030.873,2360.532,1028.417,2360.532z"/>
					</g>
				</g>
			</g>
			<g>
				<g>
					<linearGradient id="SVGID_1_" gradientUnits="userSpaceOnUse" x1="2411.6943" y1="1035.031" x2="2111.5566" y2="1323.5132">
						<stop  offset="0" style="stop-color:#AA80F9"/>
						<stop  offset="0.9964" style="stop-color:#6165D7"/>
					</linearGradient>
					<path style="fill:url(#SVGID_1_);" d="M1812.827,2383.949c-26.476,0.766-52.301-5.907-74.671-19.313
						c-68.153-40.854-168.856-108.322-259.456-196.639c-114.962-112.071-181.015-225.988-195.467-337.853l-0.227-1.753
						l-2.804-477.321c0-94.333,61.528-170.907,177.046-221.223c95.441-41.571,221.94-62.169,355.578-58.3
						c132.082,3.823,254.302,31.075,344.765,76.485c107.534,53.981,163.957,129.841,163.957,219.781l-2.558,456.083l-0.207,1.677
						c-13.207,107.121-73.98,217.847-181.395,329.818c-86.157,89.805-183.516,160.977-250.379,205.074
						C1864.89,2375.056,1839.243,2383.184,1812.827,2383.949z"/>
					
						<linearGradient id="SVGID_00000067216898973751137790000003085310912075934887_" gradientUnits="userSpaceOnUse" x1="1519.6368" y1="1100.7659" x2="2539.8767" y2="2769.4355">
						<stop  offset="0" style="stop-color:#AA80F9"/>
						<stop  offset="0.9964" style="stop-color:#6165D7"/>
					</linearGradient>
					<path style="fill:url(#SVGID_00000067216898973751137790000003085310912075934887_);" d="M1839.039,2383.949
						c-26.127,0.766-51.611-5.907-73.685-19.313c-67.253-40.854-166.625-108.322-256.028-196.639
						c-113.443-112.071-178.623-225.988-192.883-337.853l-0.224-1.753l-2.767-477.321c0-94.333,60.715-170.907,174.706-221.223
						c94.181-41.571,219.008-62.169,350.881-58.3c130.337,3.823,250.942,31.075,340.208,76.485
						c106.115,53.981,161.792,129.841,161.792,219.781l-2.524,456.083l-0.205,1.677c-13.031,107.121-73.002,217.847-178.998,329.818
						c-85.019,89.805-181.09,160.977-247.07,205.074C1890.414,2375.056,1865.105,2383.184,1839.039,2383.949z"/>
					
						<linearGradient id="SVGID_00000054235229433191606780000006308693905294094502_" gradientUnits="userSpaceOnUse" x1="2060.6306" y1="2050.8401" x2="1232.0474" y2="384.7299">
						<stop  offset="0" style="stop-color:#AA80F9"/>
						<stop  offset="0.9964" style="stop-color:#6165D7"/>
					</linearGradient>
					<path style="fill:url(#SVGID_00000054235229433191606780000006308693905294094502_);" d="M1344.967,1351.414l2.786,474.909
						c31.261,242.312,316.032,438.493,440.058,513.03c35.53,21.352,80.955,20.086,116.234-3.128
						c121.438-79.909,390.612-281.08,419.372-514.053l2.555-454.827C2325.971,1029.903,1344.967,999.053,1344.967,1351.414z"/>
					
						<linearGradient id="SVGID_00000002381805540440607790000009662896661955075233_" gradientUnits="userSpaceOnUse" x1="1439.0004" y1="1727.6173" x2="2239.0415" y2="1727.6173">
						<stop  offset="0.0036" style="stop-color:#26264F"/>
						<stop  offset="1" style="stop-color:#444B8C"/>
					</linearGradient>
					<path style="fill:url(#SVGID_00000002381805540440607790000009662896661955075233_);" d="M1846.076,2266.15
						c-2.273,0.053-5.714-0.325-9.19-2.432c-51.067-30.925-150.061-95.7-236.181-180.292
						c-93.022-91.375-146.673-180.215-158.975-263.653L1439,1352.728c0.113-44.813,35.587-83.166,105.123-113.854
						c77.625-34.26,187.864-52.237,301.954-49.528c112.953,2.682,219.974,25.42,294.117,62.211
						c65.584,32.542,98.74,70.907,98.847,114.17l-2.543,450.875c-11.483,80.742-61.837,167.786-150.248,259.286
						c-83.129,86.032-180.235,154.232-230.99,187.397C1851.787,2265.554,1848.35,2266.096,1846.076,2266.15z"/>
					
						<linearGradient id="SVGID_00000100363129815054391500000012557504124833320328_" gradientUnits="userSpaceOnUse" x1="1967.5133" y1="2340.1162" x2="1736.5209" y2="1081.2026">
						<stop  offset="0" style="stop-color:#AA80F9"/>
						<stop  offset="0.9964" style="stop-color:#6165D7"/>
					</linearGradient>
					<path style="fill:url(#SVGID_00000100363129815054391500000012557504124833320328_);" d="M1834.423,2234.227
						c-51.573-31.764-143.279-93.098-223.292-171.842c-87.419-86.035-138.009-168.594-149.902-244.985l-2.708-464.333
						c0.081-32.041,29.533-61.432,87.314-87.014c73.535-32.561,178.891-49.718,288.586-47.256
						c108.644,2.439,211.047,23.897,281.42,58.716c54.678,27.053,82.34,56.564,82.415,87.812l-2.537,449.217
						c-11.158,74.118-58.876,155.176-142.32,241.378C1975.927,2135.954,1885.762,2200.31,1834.423,2234.227z"/>
				</g>
				<path style="fill:#FFFFFF;" d="M1803.133,1885.419c-16.381,0-31.369-7.845-39.604-20.653l-128.188-199.357
					c-11.112-17.279-5.143-42.398,13.558-56.575c19.095-14.479,44.51-12.338,56.523,5.289l94.314,138.4l140.725-264.903
					c13.66-25.714,47.244-41.9,75.501-35.693c29.032,6.374,40.807,33.682,25.767,60.494l-195.604,348.717
					c-8.102,14.442-24.008,23.697-41.332,24.255C1804.239,1885.409,1803.686,1885.419,1803.133,1885.419z"/>
			</g>
			<g>
				<g>
					<g>
						<g>
							
								<linearGradient id="SVGID_00000018198351052191751430000015761342545060745616_" gradientUnits="userSpaceOnUse" x1="833.5571" y1="915.4538" x2="1213.1389" y2="915.4538">
								<stop  offset="0" style="stop-color:#444B8C"/>
								<stop  offset="0.9964" style="stop-color:#26264F"/>
							</linearGradient>
							<path style="fill:url(#SVGID_00000018198351052191751430000015761342545060745616_);" d="M1149.739,1103.756l-258.08-5.102
								c-32.467-0.642-58.451-27.306-58.098-59.557l2.779-254.025c0.353-32.253,26.913-58.19,59.385-57.931l258.122,2.056
								c33.075,0.264,59.647,26.937,59.289,59.576l-2.82,257.07C1209.957,1078.482,1182.808,1104.409,1149.739,1103.756z"/>
							
								<linearGradient id="SVGID_00000070834770054813933470000014331999777020308927_" gradientUnits="userSpaceOnUse" x1="841.6879" y1="917.0049" x2="1221.9919" y2="917.0049">
								<stop  offset="0" style="stop-color:#AA80F9"/>
								<stop  offset="0.9964" style="stop-color:#6165D7"/>
							</linearGradient>
							<path style="fill:url(#SVGID_00000070834770054813933470000014331999777020308927_);" d="M1158.471,1105.501l-258.572-5.141
								c-32.528-0.647-58.561-27.339-58.208-59.62l2.781-254.263c0.353-32.283,26.963-58.241,59.496-57.979l258.614,2.083
								c33.139,0.267,59.764,26.969,59.405,59.64l-2.823,257.321C1218.807,1080.212,1191.605,1106.16,1158.471,1105.501z"/>
							<path style="opacity:0.48;fill:#FFFFFF;" d="M1044.925,984.539c-31.131-42.468,0.993-70.338-32.116-118.293
								c-39.502-57.214-104.294-45.02-129.016-96c-5.436-11.208-7.726-23.058-7.963-34.922
								c-18.457,9.747-31.115,28.951-31.358,51.154l-2.781,254.263c-0.353,32.281,25.68,58.974,58.208,59.62l258.572,5.141
								c26.528,0.527,49.215-16.022,57.407-39.41C1169.607,1014.174,1088.525,1044.015,1044.925,984.539z"/>
						</g>
						<g>
							
								<linearGradient id="SVGID_00000119800359475685560150000015812668211077467804_" gradientUnits="userSpaceOnUse" x1="900.5734" y1="919.0373" x2="1149.5975" y2="919.0373">
								<stop  offset="0" style="stop-color:#444B8C"/>
								<stop  offset="0.9964" style="stop-color:#26264F"/>
							</linearGradient>
							<path style="fill:url(#SVGID_00000119800359475685560150000015812668211077467804_);" d="M1109.515,1043.365l-172.082-3.093
								c-20.592-0.37-37.083-17.342-36.857-37.909l1.869-170.787c0.225-20.567,17.082-37.075,37.676-36.871l172.101,1.704
								c20.856,0.207,37.6,17.183,37.373,37.917l-1.888,172.177C1147.48,1027.236,1130.369,1043.74,1109.515,1043.365z"/>
							
								<linearGradient id="SVGID_00000120547496292988207090000012184641462103318179_" gradientUnits="userSpaceOnUse" x1="1132.5818" y1="1156.9155" x2="1055.4146" y2="774.8419" gradientTransform="matrix(0.9999 0.011 -0.011 0.9999 -46.4068 -32.0924)">
								<stop  offset="0.0036" style="stop-color:#E38DDD"/>
								<stop  offset="1" style="stop-color:#9571F6"/>
							</linearGradient>
							<path style="fill:url(#SVGID_00000120547496292988207090000012184641462103318179_);" d="M1114.541,1038.398l-169.867-3.022
								c-20.333-0.362-36.618-16.995-36.398-37.151l1.832-167.384c0.221-20.157,16.865-36.331,37.2-36.124l169.885,1.724
								c20.581,0.209,37.106,16.846,36.883,37.159l-1.85,168.682C1152.004,1022.595,1135.12,1038.764,1114.541,1038.398z"/>
							<path style="opacity:0.48;fill:#FFFFFF;" d="M1044.925,984.539c-31.131-42.468,0.993-70.338-32.116-118.293
								c-25.981-37.631-62.915-45.238-92.173-60.539c-6.409,6.492-10.42,15.33-10.527,25.134l-1.832,167.384
								c-0.221,20.156,16.064,36.79,36.398,37.151l169.867,3.022c9.197,0.164,17.641-2.992,24.205-8.329
								C1104.149,1022.942,1068.887,1017.227,1044.925,984.539z"/>
						</g>
					</g>
				</g>
				<g>
					<g>
						<g>
							
								<linearGradient id="SVGID_00000005232050929912455130000011977983944705933186_" gradientUnits="userSpaceOnUse" x1="2209.229" y1="2592.4136" x2="2724.8679" y2="2592.4136">
								<stop  offset="0" style="stop-color:#444B8C"/>
								<stop  offset="0.9964" style="stop-color:#26264F"/>
							</linearGradient>
							<path style="fill:url(#SVGID_00000005232050929912455130000011977983944705933186_);" d="M2638.743,2848.21l-350.586-6.93
								c-44.104-0.872-79.402-37.093-78.923-80.904l3.774-345.078c0.479-43.813,36.56-79.047,80.671-78.695l350.643,2.793
								c44.93,0.358,81.027,36.593,80.541,80.931l-3.831,349.214C2720.545,2813.878,2683.666,2849.098,2638.743,2848.21z"/>
							
								<linearGradient id="SVGID_00000001637763714871403190000007574865177740707980_" gradientUnits="userSpaceOnUse" x1="2220.2742" y1="2594.5205" x2="2736.8943" y2="2594.5205">
								<stop  offset="0" style="stop-color:#AA80F9"/>
								<stop  offset="0.9964" style="stop-color:#6165D7"/>
							</linearGradient>
							<path style="fill:url(#SVGID_00000001637763714871403190000007574865177740707980_);" d="M2650.605,2850.582l-351.254-6.984
								c-44.187-0.879-79.552-37.139-79.072-80.99l3.778-345.4c0.479-43.854,36.628-79.117,80.822-78.761l351.312,2.83
								c45.017,0.363,81.186,36.636,80.698,81.018l-3.835,349.555C2732.567,2816.227,2695.615,2851.477,2650.605,2850.582z"/>
							<path style="opacity:0.48;fill:#FFFFFF;" d="M2496.36,2686.261c-42.29-57.69,1.349-95.55-43.628-160.693
								c-53.661-77.721-141.677-61.157-175.26-130.411c-7.384-15.226-10.496-31.323-10.817-47.439
								c-25.073,13.24-42.268,39.327-42.598,69.489l-3.778,345.4c-0.48,43.852,34.885,80.112,79.072,80.99l351.254,6.984
								c36.037,0.717,66.856-21.766,77.983-53.537C2665.733,2726.519,2555.587,2767.057,2496.36,2686.261z"/>
						</g>
						<g>
							
								<linearGradient id="SVGID_00000064317809327557872290000017712907341056378757_" gradientUnits="userSpaceOnUse" x1="2300.2666" y1="2597.2815" x2="2638.5508" y2="2597.2815">
								<stop  offset="0" style="stop-color:#444B8C"/>
								<stop  offset="0.9964" style="stop-color:#26264F"/>
							</linearGradient>
							<path style="fill:url(#SVGID_00000064317809327557872290000017712907341056378757_);" d="M2584.101,2766.173l-233.763-4.202
								c-27.973-0.503-50.374-23.558-50.069-51.496l2.539-232.004c0.306-27.939,23.205-50.364,51.181-50.087l233.789,2.315
								c28.332,0.281,51.078,23.342,50.769,51.508l-2.565,233.891C2635.674,2744.263,2612.43,2766.682,2584.101,2766.173z"/>
							
								<linearGradient id="SVGID_00000108272967939962149310000001525705140684558977_" gradientUnits="userSpaceOnUse" x1="2613.4915" y1="2897.2297" x2="2508.6643" y2="2378.2058" gradientTransform="matrix(0.9999 0.011 -0.011 0.9999 -46.4068 -32.0924)">
								<stop  offset="0.0036" style="stop-color:#E38DDD"/>
								<stop  offset="1" style="stop-color:#9571F6"/>
							</linearGradient>
							<path style="fill:url(#SVGID_00000108272967939962149310000001525705140684558977_);" d="M2590.929,2759.426l-230.753-4.105
								c-27.621-0.491-49.744-23.086-49.444-50.468l2.489-227.381c0.3-27.383,22.91-49.353,50.534-49.073l230.778,2.342
								c27.958,0.283,50.406,22.884,50.103,50.479l-2.513,229.145C2641.82,2737.958,2618.885,2759.923,2590.929,2759.426z"/>
							<path style="opacity:0.48;fill:#FFFFFF;" d="M2496.36,2686.261c-42.29-57.69,1.349-95.55-43.628-160.694
								c-35.294-51.119-85.465-61.453-125.211-82.238c-8.706,8.818-14.154,20.825-14.3,34.143l-2.489,227.381
								c-0.3,27.381,21.823,49.976,49.444,50.468l230.753,4.105c12.493,0.222,23.964-4.064,32.881-11.314
								C2576.811,2738.43,2528.911,2730.667,2496.36,2686.261z"/>
						</g>
					</g>
				</g>
				<g>
					<g>
						<g>
							
								<linearGradient id="SVGID_00000026869071252833653480000001545648400191101605_" gradientUnits="userSpaceOnUse" x1="2523.9141" y1="1192.2716" x2="2940.1663" y2="1192.2716">
								<stop  offset="0" style="stop-color:#444B8C"/>
								<stop  offset="0.9964" style="stop-color:#26264F"/>
							</linearGradient>
							<path style="fill:url(#SVGID_00000026869071252833653480000001545648400191101605_);" d="M2870.641,1398.765l-283.012-5.594
								c-35.604-0.704-64.098-29.943-63.711-65.31l3.047-278.566c0.387-35.369,29.513-63.811,65.122-63.527l283.058,2.255
								c36.27,0.289,65.41,29.54,65.017,65.332l-3.093,281.905C2936.677,1371.05,2906.906,1399.481,2870.641,1398.765z"/>
							
								<linearGradient id="SVGID_00000116925410450426685990000008853546834723969455_" gradientUnits="userSpaceOnUse" x1="2532.8303" y1="1193.9724" x2="2949.8745" y2="1193.9724">
								<stop  offset="0" style="stop-color:#AA80F9"/>
								<stop  offset="0.9964" style="stop-color:#6165D7"/>
							</linearGradient>
							<path style="fill:url(#SVGID_00000116925410450426685990000008853546834723969455_);" d="M2880.217,1400.679l-283.552-5.638
								c-35.67-0.709-64.219-29.98-63.831-65.38l3.05-278.826c0.387-35.402,29.568-63.868,65.244-63.581l283.598,2.284
								c36.34,0.293,65.538,29.575,65.144,65.402l-3.096,282.18C2946.382,1372.946,2916.552,1401.401,2880.217,1400.679z"/>
							<path style="opacity:0.48;fill:#FFFFFF;" d="M2755.702,1268.03c-34.139-46.57,1.089-77.133-35.219-129.72
								c-43.318-62.741-114.369-49.37-141.48-105.275c-5.961-12.291-8.473-25.286-8.732-38.295
								c-20.24,10.688-34.121,31.747-34.387,56.095l-3.05,278.826c-0.387,35.4,28.161,64.671,63.832,65.38l283.552,5.638
								c29.091,0.578,53.97-17.57,62.953-43.218C2892.429,1300.529,2803.514,1333.253,2755.702,1268.03z"/>
						</g>
						<g>
							
								<linearGradient id="SVGID_00000101100939767489070940000012977501802151298479_" gradientUnits="userSpaceOnUse" x1="2597.4048" y1="1196.2013" x2="2870.4863" y2="1196.2013">
								<stop  offset="0" style="stop-color:#444B8C"/>
								<stop  offset="0.9964" style="stop-color:#26264F"/>
							</linearGradient>
							<path style="fill:url(#SVGID_00000101100939767489070940000012977501802151298479_);" d="M2826.531,1332.54l-188.706-3.392
								c-22.581-0.406-40.665-19.018-40.418-41.571l2.05-187.286c0.247-22.554,18.733-40.657,41.316-40.433l188.727,1.869
								c22.871,0.227,41.233,18.843,40.983,41.58l-2.071,188.81C2868.164,1314.853,2849.4,1332.951,2826.531,1332.54z"/>
							
								<linearGradient id="SVGID_00000138533032905730214740000007035896262015149478_" gradientUnits="userSpaceOnUse" x1="2849.3479" y1="1436.2958" x2="2764.7258" y2="1017.3112" gradientTransform="matrix(0.9999 0.011 -0.011 0.9999 -46.4068 -32.0924)">
								<stop  offset="0.0036" style="stop-color:#E38DDD"/>
								<stop  offset="1" style="stop-color:#9571F6"/>
							</linearGradient>
							<path style="fill:url(#SVGID_00000138533032905730214740000007035896262015149478_);" d="M2832.043,1327.093l-186.277-3.314
								c-22.297-0.397-40.156-18.637-39.914-40.741l2.009-183.554c0.242-22.105,18.494-39.841,40.794-39.614l186.296,1.89
								c22.57,0.229,40.69,18.473,40.446,40.749l-2.029,184.978C2873.125,1309.763,2854.611,1327.495,2832.043,1327.093z"/>
							<path style="opacity:0.48;fill:#FFFFFF;" d="M2755.702,1268.031c-34.139-46.571,1.089-77.133-35.219-129.721
								c-28.491-41.266-68.993-49.608-101.078-66.387c-7.028,7.119-11.426,16.811-11.544,27.562l-2.009,183.554
								c-0.242,22.104,17.616,40.344,39.914,40.741l186.277,3.314c10.085,0.18,19.345-3.281,26.544-9.133
								C2820.647,1310.144,2781.979,1303.877,2755.702,1268.031z"/>
						</g>
					</g>
				</g>
				<g>
					<g>
						<g>
							
								<linearGradient id="SVGID_00000121973605253711316980000014950264199334107324_" gradientUnits="userSpaceOnUse" x1="1852.7821" y1="728.4471" x2="2091.4661" y2="728.4471">
								<stop  offset="0" style="stop-color:#444B8C"/>
								<stop  offset="0.9964" style="stop-color:#26264F"/>
							</linearGradient>
							<path style="fill:url(#SVGID_00000121973605253711316980000014950264199334107324_);" d="M2051.599,846.853l-162.282-3.208
								c-20.416-0.404-36.755-17.17-36.533-37.45l1.747-159.733c0.222-20.281,16.923-36.59,37.342-36.427l162.309,1.293
								c20.798,0.166,37.507,16.938,37.281,37.462l-1.773,161.648C2089.465,830.961,2072.394,847.264,2051.599,846.853z"/>
							
								<linearGradient id="SVGID_00000103950791650324749540000018160415926701780415_" gradientUnits="userSpaceOnUse" x1="1857.8948" y1="729.4225" x2="2097.0327" y2="729.4225">
								<stop  offset="0" style="stop-color:#AA80F9"/>
								<stop  offset="0.9964" style="stop-color:#6165D7"/>
							</linearGradient>
							<path style="fill:url(#SVGID_00000103950791650324749540000018160415926701780415_);" d="M2057.091,847.951l-162.592-3.233
								c-20.454-0.407-36.824-17.191-36.602-37.49l1.749-159.882c0.222-20.3,16.955-36.622,37.412-36.458l162.619,1.31
								c20.838,0.168,37.58,16.958,37.354,37.502l-1.775,161.805C2095.03,832.048,2077.925,848.365,2057.091,847.951z"/>
							<path style="opacity:0.48;fill:#FFFFFF;" d="M1985.692,771.888c-19.576-26.704,0.625-44.229-20.195-74.383
								c-24.839-35.977-65.581-28.309-81.126-60.366c-3.418-7.048-4.858-14.499-5.007-21.959
								c-11.606,6.129-19.565,18.204-19.718,32.166l-1.749,159.882c-0.222,20.299,16.148,37.083,36.602,37.49l162.592,3.233
								c16.681,0.332,30.947-10.075,36.098-24.782C2064.093,790.523,2013.108,809.288,1985.692,771.888z"/>
						</g>
						<g>
							
								<linearGradient id="SVGID_00000127758540577810414730000006403695755099997355_" gradientUnits="userSpaceOnUse" x1="1894.9225" y1="730.7005" x2="2051.5107" y2="730.7005">
								<stop  offset="0" style="stop-color:#444B8C"/>
								<stop  offset="0.9964" style="stop-color:#26264F"/>
							</linearGradient>
							<path style="fill:url(#SVGID_00000127758540577810414730000006403695755099997355_);" d="M2026.307,808.879l-108.206-1.945
								c-12.948-0.233-23.318-10.905-23.176-23.837l1.175-107.392c0.141-12.933,10.741-23.313,23.691-23.185l108.218,1.072
								c13.114,0.13,23.643,10.805,23.5,23.843l-1.187,108.266C2050.179,798.737,2039.42,809.114,2026.307,808.879z"/>
							
								<linearGradient id="SVGID_00000150819612431056674490000003370084850527711106_" gradientUnits="userSpaceOnUse" x1="2059.8206" y1="877.3835" x2="2011.2972" y2="637.1328" gradientTransform="matrix(0.9999 0.011 -0.011 0.9999 -46.4068 -32.0924)">
								<stop  offset="0.0036" style="stop-color:#E38DDD"/>
								<stop  offset="1" style="stop-color:#9571F6"/>
							</linearGradient>
							<path style="fill:url(#SVGID_00000150819612431056674490000003370084850527711106_);" d="M2029.467,805.756l-106.813-1.9
								c-12.786-0.227-23.026-10.686-22.887-23.361l1.152-105.252c0.139-12.675,10.605-22.845,23.392-22.715l106.825,1.084
								c12.942,0.131,23.332,10.593,23.192,23.366l-1.163,106.069C2053.024,795.818,2042.407,805.986,2029.467,805.756z"/>
							<path style="opacity:0.48;fill:#FFFFFF;" d="M1985.692,771.888c-19.576-26.704,0.625-44.229-20.195-74.383
								c-16.337-23.662-39.561-28.446-57.959-38.067c-4.03,4.082-6.552,9.64-6.619,15.804l-1.152,105.252
								c-0.139,12.675,10.101,23.133,22.887,23.361l106.813,1.9c5.783,0.103,11.093-1.881,15.22-5.237
								C2022.932,796.037,2000.76,792.443,1985.692,771.888z"/>
						</g>
					</g>
				</g>
				<g>
					<g>
						<g>
							
								<linearGradient id="SVGID_00000101808368038607909720000001948956159711698588_" gradientUnits="userSpaceOnUse" x1="405.6488" y1="1695.5988" x2="644.3326" y2="1695.5988">
								<stop  offset="0" style="stop-color:#444B8C"/>
								<stop  offset="0.9964" style="stop-color:#26264F"/>
							</linearGradient>
							<path style="fill:url(#SVGID_00000101808368038607909720000001948956159711698588_);" d="M604.466,1814.004l-162.282-3.208
								c-20.415-0.404-36.754-17.17-36.533-37.45l1.747-159.733c0.222-20.281,16.923-36.59,37.342-36.427l162.309,1.293
								c20.798,0.166,37.507,16.938,37.281,37.462l-1.773,161.647C642.332,1798.112,625.26,1814.415,604.466,1814.004z"/>
							
								<linearGradient id="SVGID_00000159459753669911891580000018117034884792426152_" gradientUnits="userSpaceOnUse" x1="410.7615" y1="1696.5741" x2="649.8995" y2="1696.5741">
								<stop  offset="0" style="stop-color:#AA80F9"/>
								<stop  offset="0.9964" style="stop-color:#6165D7"/>
							</linearGradient>
							<path style="fill:url(#SVGID_00000159459753669911891580000018117034884792426152_);" d="M609.957,1815.102l-162.592-3.233
								c-20.454-0.407-36.824-17.191-36.602-37.49l1.749-159.882c0.222-20.3,16.955-36.623,37.412-36.458l162.618,1.31
								c20.838,0.168,37.58,16.958,37.355,37.502l-1.775,161.805C647.897,1799.2,630.792,1815.516,609.957,1815.102z"/>
							<path style="opacity:0.48;fill:#FFFFFF;" d="M538.558,1739.04c-19.576-26.704,0.625-44.229-20.195-74.383
								c-24.839-35.976-65.581-28.309-81.126-60.366c-3.418-7.048-4.858-14.499-5.007-21.959
								c-11.606,6.129-19.565,18.204-19.718,32.166l-1.749,159.882c-0.222,20.298,16.148,37.083,36.602,37.49l162.592,3.233
								c16.681,0.332,30.947-10.075,36.098-24.781C616.96,1757.675,565.974,1776.439,538.558,1739.04z"/>
						</g>
						<g>
							
								<linearGradient id="SVGID_00000152222224598198667940000003526209541410282169_" gradientUnits="userSpaceOnUse" x1="447.7892" y1="1697.8522" x2="604.3773" y2="1697.8522">
								<stop  offset="0" style="stop-color:#444B8C"/>
								<stop  offset="0.9964" style="stop-color:#26264F"/>
							</linearGradient>
							<path style="fill:url(#SVGID_00000152222224598198667940000003526209541410282169_);" d="M579.173,1776.03l-108.206-1.945
								c-12.948-0.233-23.318-10.905-23.176-23.837l1.175-107.392c0.141-12.933,10.741-23.313,23.691-23.185l108.218,1.071
								c13.115,0.13,23.643,10.805,23.5,23.843l-1.187,108.266C603.046,1765.889,592.286,1776.266,579.173,1776.03z"/>
							
								<linearGradient id="SVGID_00000022532641147666775660000016793371172133410975_" gradientUnits="userSpaceOnUse" x1="623.3572" y1="1860.4344" x2="574.8339" y2="1620.1837" gradientTransform="matrix(0.9999 0.011 -0.011 0.9999 -46.4068 -32.0924)">
								<stop  offset="0.0036" style="stop-color:#E38DDD"/>
								<stop  offset="1" style="stop-color:#9571F6"/>
							</linearGradient>
							<path style="fill:url(#SVGID_00000022532641147666775660000016793371172133410975_);" d="M582.334,1772.907l-106.813-1.9
								c-12.786-0.228-23.026-10.686-22.887-23.361l1.152-105.252c0.139-12.675,10.605-22.845,23.392-22.715l106.825,1.084
								c12.942,0.131,23.332,10.593,23.192,23.366l-1.163,106.069C605.891,1762.97,595.274,1773.137,582.334,1772.907z"/>
							<path style="opacity:0.48;fill:#FFFFFF;" d="M538.558,1739.04c-19.576-26.704,0.625-44.229-20.195-74.383
								c-16.337-23.662-39.561-28.446-57.959-38.067c-4.03,4.082-6.552,9.64-6.619,15.804l-1.152,105.252
								c-0.139,12.675,10.101,23.134,22.887,23.361l106.813,1.9c5.783,0.103,11.093-1.881,15.22-5.237
								C575.799,1763.188,553.626,1759.595,538.558,1739.04z"/>
						</g>
					</g>
				</g>
				<g>
					<g>
						<g>
							
								<linearGradient id="SVGID_00000035511594180942755580000017463090081329016201_" gradientUnits="userSpaceOnUse" x1="1431.2897" y1="2866.2317" x2="1723.3452" y2="2866.2317">
								<stop  offset="0" style="stop-color:#444B8C"/>
								<stop  offset="0.9964" style="stop-color:#26264F"/>
							</linearGradient>
							<path style="fill:url(#SVGID_00000035511594180942755580000017463090081329016201_);" d="M1674.564,3011.114l-198.57-3.925
								c-24.98-0.494-44.973-21.009-44.702-45.824l2.138-195.451c0.271-24.816,20.707-44.772,45.692-44.573l198.603,1.582
								c25.448,0.203,45.894,20.726,45.618,45.839l-2.17,197.793C1720.897,2991.668,1700.008,3011.617,1674.564,3011.114z"/>
							
								<linearGradient id="SVGID_00000183934146987455829390000010693355189763669432_" gradientUnits="userSpaceOnUse" x1="1437.5455" y1="2867.425" x2="1730.157" y2="2867.425">
								<stop  offset="0" style="stop-color:#AA80F9"/>
								<stop  offset="0.9964" style="stop-color:#6165D7"/>
							</linearGradient>
							<path style="fill:url(#SVGID_00000183934146987455829390000010693355189763669432_);" d="M1681.283,3012.457l-198.949-3.955
								c-25.027-0.498-45.058-21.035-44.786-45.873l2.14-195.633c0.272-24.839,20.746-44.812,45.777-44.61l198.981,1.603
								c25.497,0.206,45.983,20.75,45.707,45.888l-2.172,197.986C1727.706,2992.999,1706.777,3012.964,1681.283,3012.457z"/>
							<path style="opacity:0.48;fill:#FFFFFF;" d="M1593.919,2919.386c-23.953-32.675,0.764-54.119-24.71-91.016
								c-30.393-44.021-80.245-34.639-99.267-73.864c-4.182-8.624-5.945-17.741-6.126-26.869
								c-14.201,7.499-23.94,22.275-24.127,39.358l-2.14,195.633c-0.272,24.838,19.759,45.375,44.786,45.873l198.949,3.955
								c20.411,0.406,37.867-12.328,44.17-30.323C1689.851,2942.189,1627.465,2965.149,1593.919,2919.386z"/>
						</g>
						<g>
							
								<linearGradient id="SVGID_00000126318446408125423660000008256191177802948240_" gradientUnits="userSpaceOnUse" x1="1482.8529" y1="2868.9888" x2="1674.4556" y2="2868.9888">
								<stop  offset="0" style="stop-color:#444B8C"/>
								<stop  offset="0.9964" style="stop-color:#26264F"/>
							</linearGradient>
							<path style="fill:url(#SVGID_00000126318446408125423660000008256191177802948240_);" d="M1643.616,2964.648l-132.402-2.38
								c-15.844-0.285-28.532-13.343-28.359-29.167l1.438-131.406c0.173-15.824,13.143-28.526,28.989-28.369l132.417,1.311
								c16.047,0.159,28.93,13.221,28.755,29.174l-1.453,132.475C1672.826,2952.239,1659.661,2964.937,1643.616,2964.648z"/>
							
								<linearGradient id="SVGID_00000040540080095954178070000014565935073524557445_" gradientUnits="userSpaceOnUse" x1="1695.9113" y1="3050.5625" x2="1636.5377" y2="2756.5896" gradientTransform="matrix(0.9999 0.011 -0.011 0.9999 -46.4068 -32.0924)">
								<stop  offset="0.0036" style="stop-color:#E38DDD"/>
								<stop  offset="1" style="stop-color:#9571F6"/>
							</linearGradient>
							<path style="fill:url(#SVGID_00000040540080095954178070000014565935073524557445_);" d="M1647.483,2960.827l-130.698-2.325
								c-15.645-0.278-28.175-13.076-28.005-28.585l1.41-128.788c0.17-15.51,12.976-27.954,28.622-27.795l130.711,1.326
								c15.836,0.16,28.55,12.961,28.378,28.591l-1.423,129.787C1676.307,2948.667,1663.317,2961.108,1647.483,2960.827z"/>
							<path style="opacity:0.48;fill:#FFFFFF;" d="M1593.919,2919.387c-23.953-32.676,0.764-54.119-24.71-91.016
								c-19.99-28.954-48.407-34.807-70.919-46.579c-4.931,4.995-8.017,11.795-8.1,19.338l-1.41,128.788
								c-0.17,15.509,12.36,28.306,28.005,28.585l130.698,2.325c7.076,0.126,13.573-2.302,18.624-6.408
								C1639.487,2948.935,1612.356,2944.538,1593.919,2919.387z"/>
						</g>
					</g>
				</g>
				<g>
					<g>
						<g>
							
								<linearGradient id="SVGID_00000120534529061130825420000013656052462258549180_" gradientUnits="userSpaceOnUse" x1="2833.7461" y1="1814.5609" x2="3072.4299" y2="1814.5609">
								<stop  offset="0" style="stop-color:#444B8C"/>
								<stop  offset="0.9964" style="stop-color:#26264F"/>
							</linearGradient>
							<path style="fill:url(#SVGID_00000120534529061130825420000013656052462258549180_);" d="M3032.563,1932.967l-162.282-3.208
								c-20.416-0.404-36.754-17.17-36.533-37.45l1.747-159.733c0.222-20.281,16.923-36.59,37.342-36.427l162.309,1.293
								c20.798,0.166,37.507,16.938,37.281,37.462l-1.773,161.648C3070.429,1917.074,3053.358,1933.377,3032.563,1932.967z"/>
							
								<linearGradient id="SVGID_00000067941465700357031500000015429019080476943272_" gradientUnits="userSpaceOnUse" x1="2838.8589" y1="1815.5363" x2="3077.9968" y2="1815.5363">
								<stop  offset="0" style="stop-color:#AA80F9"/>
								<stop  offset="0.9964" style="stop-color:#6165D7"/>
							</linearGradient>
							<path style="fill:url(#SVGID_00000067941465700357031500000015429019080476943272_);" d="M3038.055,1934.064l-162.592-3.233
								c-20.454-0.407-36.823-17.191-36.602-37.49l1.749-159.882c0.222-20.3,16.954-36.623,37.411-36.458l162.619,1.31
								c20.838,0.168,37.58,16.958,37.354,37.502l-1.775,161.805C3075.994,1918.162,3058.889,1934.479,3038.055,1934.064z"/>
							<path style="opacity:0.48;fill:#FFFFFF;" d="M2966.656,1858.002c-19.576-26.704,0.625-44.229-20.195-74.383
								c-24.839-35.976-65.581-28.309-81.126-60.366c-3.418-7.048-4.858-14.499-5.007-21.959
								c-11.606,6.129-19.565,18.204-19.718,32.166l-1.749,159.882c-0.222,20.299,16.148,37.083,36.602,37.49l162.592,3.233
								c16.681,0.332,30.947-10.075,36.098-24.782C3045.057,1876.637,2994.072,1895.401,2966.656,1858.002z"/>
						</g>
						<g>
							
								<linearGradient id="SVGID_00000064351947266041924390000012626994409740985472_" gradientUnits="userSpaceOnUse" x1="2875.8865" y1="1816.8142" x2="3032.4749" y2="1816.8142">
								<stop  offset="0" style="stop-color:#444B8C"/>
								<stop  offset="0.9964" style="stop-color:#26264F"/>
							</linearGradient>
							<path style="fill:url(#SVGID_00000064351947266041924390000012626994409740985472_);" d="M3007.271,1894.993l-108.206-1.945
								c-12.948-0.233-23.318-10.905-23.176-23.837l1.175-107.392c0.142-12.933,10.741-23.313,23.691-23.185l108.219,1.072
								c13.115,0.13,23.643,10.805,23.5,23.843l-1.187,108.266C3031.143,1884.851,3020.384,1895.228,3007.271,1894.993z"/>
							
								<linearGradient id="SVGID_00000012434047716520530020000001799462270958629006_" gradientUnits="userSpaceOnUse" x1="3052.7124" y1="1952.683" x2="3004.189" y2="1712.4323" gradientTransform="matrix(0.9999 0.011 -0.011 0.9999 -46.4068 -32.0924)">
								<stop  offset="0.0036" style="stop-color:#E38DDD"/>
								<stop  offset="1" style="stop-color:#9571F6"/>
							</linearGradient>
							<path style="fill:url(#SVGID_00000012434047716520530020000001799462270958629006_);" d="M3010.431,1891.869l-106.813-1.9
								c-12.786-0.228-23.026-10.687-22.887-23.361l1.152-105.252c0.139-12.675,10.605-22.845,23.392-22.715l106.824,1.084
								c12.942,0.131,23.332,10.593,23.192,23.366l-1.163,106.069C3033.988,1881.932,3023.371,1892.099,3010.431,1891.869z"/>
							<path style="opacity:0.48;fill:#FFFFFF;" d="M2966.656,1858.002c-19.576-26.704,0.625-44.229-20.195-74.383
								c-16.337-23.662-39.561-28.446-57.959-38.067c-4.03,4.082-6.552,9.64-6.619,15.804l-1.152,105.252
								c-0.139,12.674,10.101,23.133,22.887,23.361l106.813,1.9c5.783,0.103,11.093-1.881,15.221-5.237
								C3003.896,1882.15,2981.724,1878.557,2966.656,1858.002z"/>
						</g>
					</g>
				</g>
				<g>
					<g>
						<g>
							
								<linearGradient id="SVGID_00000113321910909904196560000016429224282570331317_" gradientUnits="userSpaceOnUse" x1="805.7314" y1="2346.7607" x2="1221.9835" y2="2346.7607">
								<stop  offset="0" style="stop-color:#444B8C"/>
								<stop  offset="0.9964" style="stop-color:#26264F"/>
							</linearGradient>
							<path style="fill:url(#SVGID_00000113321910909904196560000016429224282570331317_);" d="M1152.458,2553.254l-283.012-5.594
								c-35.603-0.704-64.098-29.943-63.711-65.31l3.047-278.566c0.387-35.369,29.513-63.811,65.122-63.527l283.058,2.255
								c36.27,0.289,65.41,29.54,65.017,65.332l-3.093,281.905C1218.494,2525.539,1188.723,2553.971,1152.458,2553.254z"/>
							
								<linearGradient id="SVGID_00000065061141997530610540000010409256570766617258_" gradientUnits="userSpaceOnUse" x1="814.6476" y1="2348.4617" x2="1231.6918" y2="2348.4617">
								<stop  offset="0" style="stop-color:#AA80F9"/>
								<stop  offset="0.9964" style="stop-color:#6165D7"/>
							</linearGradient>
							<path style="fill:url(#SVGID_00000065061141997530610540000010409256570766617258_);" d="M1162.035,2555.168l-283.552-5.638
								c-35.67-0.709-64.218-29.98-63.831-65.38l3.05-278.826c0.387-35.402,29.568-63.868,65.244-63.581l283.598,2.284
								c36.34,0.293,65.538,29.575,65.144,65.402l-3.096,282.18C1228.199,2527.435,1198.369,2555.891,1162.035,2555.168z"/>
							<path style="opacity:0.48;fill:#FFFFFF;" d="M1037.519,2422.52c-34.139-46.57,1.089-77.133-35.219-129.72
								c-43.318-62.741-114.369-49.37-141.48-105.275c-5.96-12.292-8.473-25.286-8.732-38.295
								c-20.24,10.688-34.121,31.747-34.388,56.095l-3.05,278.826c-0.387,35.4,28.161,64.671,63.831,65.38l283.552,5.638
								c29.091,0.578,53.97-17.57,62.953-43.218C1174.246,2455.018,1085.331,2487.742,1037.519,2422.52z"/>
						</g>
						<g>
							
								<linearGradient id="SVGID_00000147207663712724511260000005586921177759707554_" gradientUnits="userSpaceOnUse" x1="879.222" y1="2350.6904" x2="1152.3035" y2="2350.6904">
								<stop  offset="0" style="stop-color:#444B8C"/>
								<stop  offset="0.9964" style="stop-color:#26264F"/>
							</linearGradient>
							<path style="fill:url(#SVGID_00000147207663712724511260000005586921177759707554_);" d="M1108.349,2487.029l-188.706-3.392
								c-22.581-0.406-40.665-19.018-40.418-41.571l2.05-187.286c0.247-22.554,18.733-40.657,41.316-40.433l188.727,1.869
								c22.871,0.227,41.233,18.843,40.983,41.58l-2.07,188.81C1149.981,2469.342,1131.217,2487.44,1108.349,2487.029z"/>
							
								<linearGradient id="SVGID_00000024704475411584563960000016599133027979297197_" gradientUnits="userSpaceOnUse" x1="1143.9017" y1="2609.6624" x2="1059.2795" y2="2190.6775" gradientTransform="matrix(0.9999 0.011 -0.011 0.9999 -46.4068 -32.0924)">
								<stop  offset="0.0036" style="stop-color:#E38DDD"/>
								<stop  offset="1" style="stop-color:#9571F6"/>
							</linearGradient>
							<path style="fill:url(#SVGID_00000024704475411584563960000016599133027979297197_);" d="M1113.86,2481.583l-186.277-3.314
								c-22.297-0.397-40.156-18.637-39.914-40.74l2.009-183.555c0.242-22.105,18.494-39.841,40.794-39.614l186.297,1.89
								c22.57,0.229,40.69,18.473,40.446,40.749l-2.028,184.979C1154.943,2464.252,1136.428,2481.984,1113.86,2481.583z"/>
							<path style="opacity:0.48;fill:#FFFFFF;" d="M1037.519,2422.52c-34.139-46.571,1.089-77.133-35.218-129.721
								c-28.491-41.266-68.992-49.608-101.078-66.387c-7.028,7.118-11.426,16.811-11.544,27.562l-2.009,183.555
								c-0.242,22.104,17.616,40.344,39.914,40.74l186.277,3.314c10.085,0.18,19.345-3.281,26.544-9.133
								C1102.464,2464.633,1063.796,2458.366,1037.519,2422.52z"/>
						</g>
					</g>
				</g>
			</g>
		</g>
		<g>
			
				<linearGradient id="SVGID_00000099653308051631765220000002388369024203635886_" gradientUnits="userSpaceOnUse" x1="51.3292" y1="3079.7195" x2="69.9324" y2="3414.5803" gradientTransform="matrix(1 0 0 1 2649.1306 0)">
				<stop  offset="0" style="stop-color:#444B8C"/>
				<stop  offset="0.9964" style="stop-color:#26264F"/>
			</linearGradient>
			<path style="fill:url(#SVGID_00000099653308051631765220000002388369024203635886_);" d="M2747.06,3198.791
				c0,0,2.327,18.511,0.765,24.712c-1.562,6.202-55.382,10.683-73.651,8.528c-18.268-2.157,10.882-20.817,22.522-24.319
				C2708.335,3204.209,2747.06,3198.791,2747.06,3198.791z"/>
			
				<linearGradient id="SVGID_00000073699103144738213490000011402808056337478536_" gradientUnits="userSpaceOnUse" x1="70.8378" y1="3187.1064" x2="98.6948" y2="3187.1064" gradientTransform="matrix(1 0 0 1 2649.1306 0)">
				<stop  offset="0" style="stop-color:#311944"/>
				<stop  offset="1" style="stop-color:#A03976"/>
			</linearGradient>
			<path style="fill:url(#SVGID_00000073699103144738213490000011402808056337478536_);" d="M2719.969,3167.911l5.673,37.137
				c0,0,14.465,6.502,21.419,0.077l0.765-38.874L2719.969,3167.911z"/>
			
				<linearGradient id="SVGID_00000012471546119102346220000016223475928028145308_" gradientUnits="userSpaceOnUse" x1="388.042" y1="3061.0171" x2="406.6447" y2="3395.8679" gradientTransform="matrix(1 0 0 1 2649.1306 0)">
				<stop  offset="0" style="stop-color:#444B8C"/>
				<stop  offset="0.9964" style="stop-color:#26264F"/>
			</linearGradient>
			<path style="fill:url(#SVGID_00000012471546119102346220000016223475928028145308_);" d="M3023.369,3166.252
				c0,0-11.42,8.474-8.375,18.623c3.043,10.148,29.69,50.813,48.681,62.354c18.99,11.542,13.037-12.504,7.511-27.48
				c-5.527-14.977-19.647-47.967-25.16-53.497C3040.515,3160.723,3023.369,3166.252,3023.369,3166.252z"/>
			
				<linearGradient id="SVGID_00000125571269009632195200000006879508279077623220_" gradientUnits="userSpaceOnUse" x1="353.6973" y1="3169.9294" x2="409.0991" y2="3169.9294" gradientTransform="matrix(1 0 0 1 2649.1306 0)">
				<stop  offset="0" style="stop-color:#311944"/>
				<stop  offset="1" style="stop-color:#A03976"/>
			</linearGradient>
			<path style="fill:url(#SVGID_00000125571269009632195200000006879508279077623220_);" d="M3002.828,3125.45
				c5.52,15.387,10.829,28.039,14.983,37.37c9.188,20.643,14.21,28.389,19.897,35.105c4.96,5.849,16.702,18.33,19.858,16.252
				c3.206-2.107-5.385-17.282-21.943-61.724c-2.405-6.45-9.998-27.003-9.998-27.003l0,0H3002.828z"/>
			
				<linearGradient id="SVGID_00000176756908255120566170000006828604558023042971_" gradientUnits="userSpaceOnUse" x1="55.888" y1="3153.5532" x2="46.5863" y2="2793.897" gradientTransform="matrix(1 0 0 1 2649.1306 0)">
				<stop  offset="0" style="stop-color:#311944"/>
				<stop  offset="1" style="stop-color:#893976"/>
			</linearGradient>
			<path style="fill:url(#SVGID_00000176756908255120566170000006828604558023042971_);" d="M2607.259,2482.489
				c-3.939,38.677-7.718,98.706-2.067,171.562c7.364,94.922,26.344,154.987,50.147,256.195
				c14.547,61.852,34.148,152.886,51.886,266.738c4.116,2.355,16.224,8.55,31.813,6.237c8.729-1.296,15.257-4.766,19.111-7.26
				c46.54-142.21,32.795-230.339,10.334-285.244c-9.573-23.405-21.18-41.869-27.385-77.846
				c-8.209-47.597,1.941-74.206,16.417-184.46c10.318-78.583,8.532-90.731,1.667-102.516
				C2731.742,2478.775,2647.808,2479.697,2607.259,2482.489z"/>
			
				<linearGradient id="SVGID_00000173142983325532248050000006242946462008566195_" gradientUnits="userSpaceOnUse" x1="262.6874" y1="3148.2051" x2="253.3857" y2="2788.5493" gradientTransform="matrix(1 0 0 1 2649.1306 0)">
				<stop  offset="0" style="stop-color:#311944"/>
				<stop  offset="1" style="stop-color:#893976"/>
			</linearGradient>
			<path style="fill:url(#SVGID_00000173142983325532248050000006242946462008566195_);" d="M2767.451,2499.027
				c28.51,147.236,56.492,224.567,77.667,268.306c5.222,10.786,22.646,45.587,39.117,95.48
				c14.582,44.163,20.659,76.651,23.771,90.949c9.829,45.132,34.123,111.029,99.488,197.461c0.815,0.479,11.96,6.782,22.616,1.163
				c5.392-2.846,8.081-7.381,9.149-9.495c-8.545-82.635-18.355-152.075-26.87-205.667c-1.787-11.24-9.655-60.417-21.994-125.389
				c-4.829-25.427-11.905-62.682-20.38-100.947c-10.553-47.652-26.735-112.478-51.675-190.159
				C2868.044,2513.493,2817.747,2506.263,2767.451,2499.027z"/>
			
				<linearGradient id="SVGID_00000107565681647465401090000001490598319920746648_" gradientUnits="userSpaceOnUse" x1="389.6398" y1="2247.9255" x2="259.4199" y2="2063.4473" gradientTransform="matrix(1 0 0 1 2649.1306 0)">
				<stop  offset="0" style="stop-color:#444B8C"/>
				<stop  offset="0.9964" style="stop-color:#26264F"/>
			</linearGradient>
			<path style="fill:url(#SVGID_00000107565681647465401090000001490598319920746648_);" d="M2743.163,1916.651
				c-16.169-14.945-47.101-32.174-62.616-72.226c-4.67-12.056-21.216-54.773,3.191-87.449c14.485-19.396,41.394-32.567,65.11-27.904
				c20.267,3.985,23.436,18.099,57.875,46.507c13.405,11.058,34.951,28.831,58.933,38.713c41.085,16.932,65.768,1,107.016,2.816
				c50.673,2.235,109.538,30.514,137.898,71.639c50.338,72.988-22.581,147.03,32.555,232.536
				c18.067,28.013,26.97,21.733,69.761,75.962c42.847,54.301,64.272,81.447,60.459,114.718
				c-5.291,46.174-55.025,90.282-101.858,93.28c-45.749,2.932-74.832-33.063-98.123-17.318
				c-16.578,11.203-7.099,32.997-24.706,59.187c-22.696,33.767-67.305,40.495-74.509,41.579
				c-66.871,10.088-157.036-68.326-195.331-161.225C2709.764,2159.942,2831.066,1997.904,2743.163,1916.651z"/>
			
				<linearGradient id="SVGID_00000085934548853512687070000009617559051324061109_" gradientUnits="userSpaceOnUse" x1="3772.0195" y1="2192.8381" x2="3070.7905" y2="2600.0037" gradientTransform="matrix(-1 0 0 1 6412.7007 0)">
				<stop  offset="0" style="stop-color:#FFC444"/>
				<stop  offset="0.9964" style="stop-color:#F36F56"/>
			</linearGradient>
			<path style="fill:url(#SVGID_00000085934548853512687070000009617559051324061109_);" d="M2468.77,1963.158
				c-0.454-46.761,105.769-84.131,154.372-96.169c75.604-18.731,136.147-6.97,150.852-3.859
				c94.288,19.978,153.011,76.556,175.113,100.337c-18.098,11.784-68.042,47.742-92.776,115.959
				c-7.697,21.225-30.431,93.783,2.083,161.746c18.734,39.161,51.877,68.561,77.047,90.895
				c37.754,33.493,57.306,38.641,69.963,68.646c13.784,32.677-0.105,48.608,17.012,70.979
				c18.383,24.022,39.922,12.855,71.082,37.151c31.919,24.882,20.56,45.363,49.608,72.861
				c42.208,39.954,98.16,26.978,100.766,44.957c2.242,15.465-37.525,36.448-71.311,44.957
				c-66.908,16.853-125.268-11.433-142.622-20.153c-48.048-24.138-39.748-39.762-76.38-58.165
				c-61.34-30.812-103.259,3.476-242.97,7.007c-75.657,1.914-113.912,2.343-134.871-23.253
				c-19.14-23.381-9.078-49.027,2.407-159.555c5.467-52.605,7.439-105.52,11.468-158.251
				c11.396-149.169,11.745-162.297,1.627-182.922C2554.996,2002.446,2469.178,2005.124,2468.77,1963.158z"/>
			<g style="opacity:0.3;">
				
					<linearGradient id="SVGID_00000023973527073890381040000008677769451120307598_" gradientUnits="userSpaceOnUse" x1="249.1087" y1="1857.1504" x2="356.5918" y2="2514.4529" gradientTransform="matrix(1 0 0 1 2649.1306 0)">
					<stop  offset="0" style="stop-color:#FFC444"/>
					<stop  offset="0.9964" style="stop-color:#F36F56"/>
				</linearGradient>
				<path style="fill:url(#SVGID_00000023973527073890381040000008677769451120307598_);" d="M3143.125,2581.704
					c-29.048-27.499-17.689-47.979-49.608-72.861c-31.16-24.296-52.698-13.129-71.082-37.151
					c-17.117-22.371-3.228-38.302-17.012-70.979c-12.657-30.005-32.209-35.153-69.963-68.646
					c-25.17-22.333-58.313-51.733-77.047-90.895c-32.515-67.963-9.78-140.521-2.083-161.746
					c24.734-68.217,74.678-104.175,92.776-115.959c-1.742-1.878-3.797-4.016-5.995-6.268
					c-119.242,16.387-188.766,85.287-197.365,105.689c-19.875,47.161,11.59,64.487,12.402,200.502
					c0.387,65.012-6.625,90.683,14.468,117.818c24.125,31.035,51.927,21.431,86.814,62.01c26.805,31.174,22.512,50.94,47.541,64.074
					c26.913,14.121,44.055-2.338,74.412,4.136c50.713,10.814,61.554,69.288,95.081,101.28
					c25.352,24.191,72.226,41.105,164.669,22.951c2.138-3.113,3.171-6.153,2.757-8.999
					C3241.285,2608.682,3185.333,2621.658,3143.125,2581.704z"/>
			</g>
			
				<linearGradient id="SVGID_00000013177122637528153450000012847946083941747603_" gradientUnits="userSpaceOnUse" x1="226.8751" y1="1860.7869" x2="334.3579" y2="2518.0874" gradientTransform="matrix(1 0 0 1 2649.1306 0)">
				<stop  offset="0" style="stop-color:#FFC444"/>
				<stop  offset="0.9964" style="stop-color:#F36F56"/>
			</linearGradient>
			<path style="fill:url(#SVGID_00000013177122637528153450000012847946083941747603_);" d="M2781.918,2099.579
				c-12.676,26.917,45.571,89.612,110.31,119.38c13.19,6.068,107.913,49.62,150.131,7.74c34.884-34.609,12.37-106.168,4.332-131.716
				c-39.467-125.449-160.674-189.263-211.47-212.28c-37.909,94.788-15.583,137.026-6.795,150.216
				c9.181,13.776,34.8,42.716,62.01,68.211c19.14,17.931,31.058,26.657,29.455,29.454c-1.994,3.481-24.429-3.094-111.569-45.509
				C2798.219,2086.711,2786.25,2090.387,2781.918,2099.579z"/>
			
				<linearGradient id="SVGID_00000154396707412246238260000016556827833338401414_" gradientUnits="userSpaceOnUse" x1="3599.2295" y1="2082.1572" x2="3995.7451" y2="2082.1572" gradientTransform="matrix(-1 0 0 1 6412.7007 0)">
				<stop  offset="0" style="stop-color:#FF9085"/>
				<stop  offset="1" style="stop-color:#FB6FBB"/>
			</linearGradient>
			<path style="fill:url(#SVGID_00000154396707412246238260000016556827833338401414_);" d="M2417.307,1944.932l42.755,212.929
				c1.371,6.823,6.659,12.183,13.464,13.642l318.807,68.419c11.425,2.452,21.99-6.785,21.084-18.434l-16.826-216.555
				c-0.584-7.515-5.908-13.801-13.228-15.607c-50.571-12.481-245.223-59.225-347.886-65.299
				C2424.01,1923.349,2415.046,1933.67,2417.307,1944.932z"/>
			
				<linearGradient id="SVGID_00000015355097740096444670000008213103780835480981_" gradientUnits="userSpaceOnUse" x1="-283.1394" y1="2573.8618" x2="-304.8415" y2="2631.7344" gradientTransform="matrix(0.8633 0.5047 -0.5047 0.8633 4329.7402 -259.5109)">
				<stop  offset="0" style="stop-color:#311944"/>
				<stop  offset="1" style="stop-color:#A03976"/>
			</linearGradient>
			<path style="fill:url(#SVGID_00000015355097740096444670000008213103780835480981_);" d="M2735.291,1789.422
				c0,0,6.014,48.075,23.757,59.09c17.745,11.009,46.429,25.398,49.589,29.303c3.16,3.901-109.921,16.059-165.96-12.219l0,0
				c18.468-3.852,23.49-5.268,23.49-5.268c5.011-1.418,14.361-4.052,23.735-9.393c6.38-3.632,16.662-10.73,26.094-24.132
				l-0.206-26.619L2735.291,1789.422z"/>
			
				<linearGradient id="SVGID_00000015323493533159123100000015961662715519045308_" gradientUnits="userSpaceOnUse" x1="-290.5274" y1="2500.6064" x2="-363.9033" y2="2591.5513" gradientTransform="matrix(0.8633 0.5047 -0.5047 0.8633 4329.7402 -259.5109)">
				<stop  offset="0" style="stop-color:#311944"/>
				<stop  offset="1" style="stop-color:#A03976"/>
			</linearGradient>
			<path style="fill:url(#SVGID_00000015323493533159123100000015961662715519045308_);" d="M2737.99,1806.448
				c0,0-11.569,15.88-29.713,9.262c-16.245-5.925-6.549-47.883,6.336-52.669c4.297-1.596,12.191-0.891,17.467,2.401
				c3.711,2.316,13.62,14.625,7.94,28.419c4.104-1.189,7.716-0.109,8.62,1.923c1.149,2.577-2.326,6.088-3.114,6.883
				C2742.798,1805.425,2739.507,1806.196,2737.99,1806.448z"/>
			
				<linearGradient id="SVGID_00000066501979343559042800000001905669790961499580_" gradientUnits="userSpaceOnUse" x1="3632.7886" y1="2080.6238" x2="3995.7451" y2="2080.6238" gradientTransform="matrix(-1 0 0 1 6412.7007 0)">
				<stop  offset="0" style="stop-color:#FF9085"/>
				<stop  offset="1" style="stop-color:#FB6FBB"/>
			</linearGradient>
			<path style="opacity:0.3;fill:url(#SVGID_00000066501979343559042800000001905669790961499580_);" d="M2704.406,2129.034
				c-34.239-9.654-62.635,14.321-89.914-4.651c-27.943-19.432-9.706-52.624-38.756-85.263
				c-31.061-34.899-70.465-17.804-99.216-49.608c-10.672-11.809-20.273-31.048-20.421-63.851
				c-7.203-0.696-14.101-1.248-20.623-1.635c-11.466-0.678-20.431,9.646-18.17,20.903l42.757,212.929
				c1.369,6.824,6.657,12.184,13.462,13.643l306.386,65.751C2758.279,2161.358,2729.412,2136.082,2704.406,2129.034z"/>
			
				<linearGradient id="SVGID_00000011747331845054246310000015429263011317904018_" gradientUnits="userSpaceOnUse" x1="-236.9469" y1="2126.0864" x2="-196.6406" y2="1920.4213" gradientTransform="matrix(1 0 0 1 2649.1306 0)">
				<stop  offset="0" style="stop-color:#311944"/>
				<stop  offset="1" style="stop-color:#A03976"/>
			</linearGradient>
			<path style="fill:url(#SVGID_00000011747331845054246310000015429263011317904018_);" d="M2437.598,2058.208
				c0,0-20.337-18.798-22.549-40.633c-2.212-21.836,13.135-39.309,28.002-43.763s22.803,2.115,12.823,23.616
				C2445.891,2018.929,2430.059,2032.885,2437.598,2058.208z"/>
		</g>
	</g>
</g>
</svg>
